STARTFONT 2.1
COMMENT
COMMENT Converted from OpenType font "Tuffy_Bold.otf" by "otf2bdf 3.0".
COMMENT
FONT -FreeType-Tuffy-Bold-R-Normal--44-320-100-100-P-195-ISO10646-1
SIZE 32 100 100
FONTBOUNDINGBOX 41 57 -5 -11
STARTPROPERTIES 19
FOUNDRY "FreeType"
FAMILY_NAME "Tuffy"
WEIGHT_NAME "Bold"
SLANT "R"
SETWIDTH_NAME "Normal"
ADD_STYLE_NAME ""
PIXEL_SIZE 44
POINT_SIZE 320
RESOLUTION_X 100
RESOLUTION_Y 100
SPACING "P"
AVERAGE_WIDTH 195
CHARSET_REGISTRY "ISO10646"
CHARSET_ENCODING "1"
FONT_ASCENT 45
FONT_DESCENT 10
COPYRIGHT "Created by Thatcher Ulrich (http://tulrich.com) with FontForge 1.0 (http://fontforge.sf.net)    This font, including hint instructions, has been donated to the Public Domain.  Do whatever you want with it.  "
_OTF_FONTFILE "Tuffy_Bold.otf"
_OTF_PSNAME "Tuffy-Bold"
ENDPROPERTIES
CHARS 194
STARTCHAR 0020
ENCODING 32
SWIDTH 292 0
DWIDTH 13 0
BBX 0 0 0 0
BITMAP
ENDCHAR
STARTCHAR 0021
ENCODING 33
SWIDTH 225 0
DWIDTH 10 0
BBX 8 33 1 -1
BITMAP
3C
7E
7E
7E
7E
7E
7E
7E
7E
7E
7E
7E
7E
7E
3E
3E
3C
3C
3C
3C
3C
3C
3C
3C
00
00
3C
7E
7E
FF
7E
7E
3C
ENDCHAR
STARTCHAR 0022
ENCODING 34
SWIDTH 427 0
DWIDTH 19 0
BBX 13 10 3 23
BITMAP
F8F8
F8F8
F8F8
F8F8
F8F8
F8F8
F8F8
F0F8
F0F8
F0F0
ENDCHAR
STARTCHAR 0023
ENCODING 35
SWIDTH 765 0
DWIDTH 34 0
BBX 28 29 3 1
BITMAP
03F0FC00
03F0FC00
03F0FC00
03F0FC00
03F0FC00
03F0FC00
03F0FC00
FFFFFFF0
FFFFFFF0
FFFFFFF0
FFFFFFF0
FFFFFFF0
03F0FC00
03F0FC00
03F0FC00
03F0FC00
03F0FC00
FFFFFFF0
FFFFFFF0
FFFFFFF0
FFFFFFF0
FFFFFFF0
03F0FC00
03F0FC00
03F0FC00
03F0FC00
03F0FC00
03F0FC00
03F0FC00
ENDCHAR
STARTCHAR 0024
ENCODING 36
SWIDTH 450 0
DWIDTH 20 0
BBX 21 36 1 -3
BITMAP
00F000
00F000
00F000
0FFF00
1FFF80
3FFFC0
7FFFE0
FFFFF0
FEF7C0
FCF200
FCF000
FCF000
FEF000
FFF000
7FF000
3FF800
1FFE00
0FFF80
03FFE0
00FFE0
00FFF0
00F3F0
00F3F8
00F1F8
18F1F8
FCF1F8
FCF1F8
FEF3F8
7FFFF0
7FFFF0
3FFFE0
1FFFC0
07FF00
00F800
00F000
00F000
ENDCHAR
STARTCHAR 0025
ENCODING 37
SWIDTH 697 0
DWIDTH 31 0
BBX 27 29 2 1
BITMAP
0F800000
3FE03E00
7FF03C00
7FF07C00
FDF87800
F8F8F000
F8F8F000
F8F9E000
F8FBE000
7FFBC000
7FF7C000
3FE78000
1FCF8000
020F0000
001F0000
001E3E00
003CFF00
007DFF80
0079FFC0
00FBFFC0
00F3E3E0
01F3C3E0
01E3C3E0
03E3E3E0
07C3FFC0
0781FFC0
0F80FF80
00007F00
00000800
ENDCHAR
STARTCHAR 0026
ENCODING 38
SWIDTH 630 0
DWIDTH 28 0
BBX 25 34 1 -1
BITMAP
01FC0000
07FF0000
0FFF8000
1FFFC000
3FFFE000
3F8FE000
3F078000
7E020000
7E000000
7E000000
7E000000
3F000000
3F800000
1FFE0000
0FFE0000
07FE0000
0FFE0000
3FFE0000
3F800000
7E000000
7E0FFF80
7C0FFF80
FC0FFF80
FC0FFF80
FC0FFF80
FC00F800
FE01F800
7E01F800
7F87F000
3FFFF000
3FFFE000
1FFFC000
07FF8000
01FE0000
ENDCHAR
STARTCHAR 0027
ENCODING 39
SWIDTH 225 0
DWIDTH 10 0
BBX 5 10 3 23
BITMAP
F8
F8
F8
F8
F8
F8
F8
F0
F0
F0
ENDCHAR
STARTCHAR 0028
ENCODING 40
SWIDTH 315 0
DWIDTH 14 0
BBX 11 36 1 -2
BITMAP
07E0
0FC0
0F80
1F80
1F00
3F00
3F00
7E00
7E00
7E00
FC00
FC00
FC00
FC00
F800
F800
F800
F800
F800
F800
F800
F800
FC00
FC00
FC00
FC00
7E00
7E00
7E00
3F00
3F00
3F00
1F80
0F80
0FC0
07E0
ENDCHAR
STARTCHAR 0029
ENCODING 41
SWIDTH 315 0
DWIDTH 14 0
BBX 11 36 2 -2
BITMAP
F800
FC00
7E00
3E00
3F00
1F00
1F80
1F80
0FC0
0FC0
0FC0
07C0
07E0
07E0
07E0
07E0
07E0
07E0
07E0
07E0
07E0
07E0
07E0
07E0
07E0
0FC0
0FC0
0FC0
0FC0
1F80
1F80
3F00
3F00
7E00
7E00
FC00
ENDCHAR
STARTCHAR 002A
ENCODING 42
SWIDTH 562 0
DWIDTH 25 0
BBX 21 19 2 6
BITMAP
070780
0F8780
0F8FC0
0FDF80
07DF00
03FF00
03FE00
FFFFF8
FFFFF8
FFFFF8
FFFFF8
7FFFF8
03FE00
03FF00
07DF00
0FDF80
0F8FC0
0F8F80
070780
ENDCHAR
STARTCHAR 002B
ENCODING 43
SWIDTH 472 0
DWIDTH 21 0
BBX 18 18 1 5
BITMAP
03E000
03E000
03E000
03E000
03E000
03E000
03E000
FFFFC0
FFFFC0
FFFFC0
FFFFC0
FFFFC0
03E000
03E000
03E000
03E000
03E000
03E000
ENDCHAR
STARTCHAR 002C
ENCODING 44
SWIDTH 225 0
DWIDTH 10 0
BBX 7 11 1 -4
BITMAP
38
7E
FE
FE
FE
7E
7E
1C
3C
38
10
ENDCHAR
STARTCHAR 002D
ENCODING 45
SWIDTH 472 0
DWIDTH 21 0
BBX 17 5 2 11
BITMAP
FFFF80
FFFF80
FFFF80
FFFF80
FFFF80
ENDCHAR
STARTCHAR 002E
ENCODING 46
SWIDTH 225 0
DWIDTH 10 0
BBX 7 7 1 -1
BITMAP
3C
7E
FE
FE
7E
7E
3C
ENDCHAR
STARTCHAR 002F
ENCODING 47
SWIDTH 405 0
DWIDTH 18 0
BBX 20 34 -1 0
BITMAP
0003F0
0003F0
0007E0
0007E0
0007C0
000FC0
000FC0
001F80
001F80
003F00
003F00
003F00
007E00
007E00
00FC00
00FC00
01FC00
01F800
01F800
03F000
03F000
07E000
07E000
07E000
0FC000
0FC000
1F8000
1F8000
3F8000
3F0000
3F0000
7E0000
7E0000
FE0000
ENDCHAR
STARTCHAR 0030
ENCODING 48
SWIDTH 585 0
DWIDTH 26 0
BBX 22 32 2 0
BITMAP
01FC00
07FF00
0FFF80
1FFFC0
3FFFE0
3F8FF0
7E03F0
7E01F0
7C01F8
FC01F8
FC00F8
FC00F8
FC00F8
FC00FC
FC00FC
FC00FC
FC00FC
FC00FC
FC00F8
FC00F8
FC00F8
FC01F8
7C01F8
7C01F0
7E03F0
3F03F0
3F8FE0
1FFFE0
1FFFC0
0FFF80
03FF00
00FC00
ENDCHAR
STARTCHAR 0031
ENCODING 49
SWIDTH 585 0
DWIDTH 26 0
BBX 12 32 5 0
BITMAP
07F0
0FF0
1FF0
3FF0
7FF0
FFF0
03F0
03F0
03F0
03F0
03F0
03F0
03F0
03F0
03F0
03F0
03F0
03F0
03F0
03F0
03F0
03F0
03F0
03F0
03F0
03F0
03F0
03F0
03F0
03F0
03F0
03F0
ENDCHAR
STARTCHAR 0032
ENCODING 50
SWIDTH 585 0
DWIDTH 26 0
BBX 21 32 2 0
BITMAP
01FC00
07FF00
1FFFC0
3FFFC0
3FFFE0
7F0FE0
7E03F0
7C03F0
0403F0
0003F0
0003F0
0003F0
0003F0
0007F0
000FE0
001FC0
007FC0
00FF80
01FF00
07FE00
0FF800
1FF000
1FE000
3F8000
7F0000
7E0000
7E0000
FFFFF8
FFFFF8
FFFFF8
FFFFF8
FFFFF8
ENDCHAR
STARTCHAR 0033
ENCODING 51
SWIDTH 585 0
DWIDTH 26 0
BBX 22 32 2 0
BITMAP
01FC00
07FF00
0FFFC0
1FFFE0
3FFFE0
3F8FF0
1E03F0
0003F0
0003F0
0003F0
0003F0
0003E0
000FC0
01FF80
01FFC0
01FFE0
01FFF0
01FFF8
0003F8
0001F8
0000FC
0000FC
0000FC
0C00FC
FC01FC
FE01F8
7F8FF8
3FFFF0
3FFFE0
1FFFC0
07FF80
01FC00
ENDCHAR
STARTCHAR 0034
ENCODING 52
SWIDTH 585 0
DWIDTH 26 0
BBX 21 32 2 0
BITMAP
000FC0
001FC0
001FC0
003FC0
007FC0
007FC0
00FFC0
00FFC0
01F7C0
03F7C0
03E7C0
07C7C0
0FC7C0
0F87C0
1F07C0
1F07C0
3E07C0
7C07C0
7C07C0
FFFFF8
FFFFF8
FFFFF8
FFFFF8
FFFFF8
0007C0
0007C0
0007C0
0007C0
0007C0
0007C0
0007C0
0007C0
ENDCHAR
STARTCHAR 0035
ENCODING 53
SWIDTH 585 0
DWIDTH 26 0
BBX 22 32 2 0
BITMAP
0FFFE0
0FFFE0
0FFFE0
0FFFE0
0FFFE0
1F8000
1F8000
1F8000
1F0000
1F0000
1F0000
3FFE00
3FFF80
3FFFC0
3FFFE0
3FFFF0
0707F8
0001F8
0001FC
0000FC
0000FC
0000FC
0000FC
FC00FC
FE01FC
7F01F8
7FCFF8
3FFFF0
1FFFE0
0FFFC0
07FF80
00FE00
ENDCHAR
STARTCHAR 0036
ENCODING 54
SWIDTH 585 0
DWIDTH 26 0
BBX 21 32 2 0
BITMAP
003F00
007E00
007E00
00FC00
00FC00
01F800
01F800
03F000
03F000
07E000
0FC000
0FC000
1FFC00
1FFF00
3FFFC0
3FFFE0
7FFFF0
7FCFF0
7F03F8
7E01F8
FC01F8
FC01F8
FC01F8
FC01F8
7E01F8
7E03F0
7F8FF0
3FFFE0
1FFFE0
0FFFC0
07FF00
01FC00
ENDCHAR
STARTCHAR 0037
ENCODING 55
SWIDTH 585 0
DWIDTH 26 0
BBX 23 32 2 0
BITMAP
FFFFFE
FFFFFC
FFFFFC
FFFFF8
FFFFF8
FFFFF0
0007F0
000FE0
000FE0
001FC0
001FC0
003F80
003F80
007F00
007F00
00FE00
00FE00
01FC00
01FC00
03F800
03F800
07F000
07F000
0FE000
0FE000
1FC000
1FC000
3F8000
3F8000
7F0000
7F0000
FE0000
ENDCHAR
STARTCHAR 0038
ENCODING 56
SWIDTH 585 0
DWIDTH 26 0
BBX 23 32 1 0
BITMAP
00FE00
03FFC0
0FFFE0
1FFFF0
1FFFF8
3F81F8
3F00FC
3F00FC
3F00FC
3F00FC
3F01FC
3F83F8
1FFFF0
0FFFE0
07FFC0
0FFFF0
1FFFF8
3FEFF8
7F01FC
7E00FE
7E007E
7C007E
FC007E
7C007E
7E007E
7E00FE
7F81FC
3FFFFC
1FFFF8
0FFFF0
07FFC0
00FF00
ENDCHAR
STARTCHAR 0039
ENCODING 57
SWIDTH 585 0
DWIDTH 26 0
BBX 21 32 2 0
BITMAP
01FC00
07FF00
0FFFC0
1FFFE0
3FFFE0
7F87F0
7F03F0
7E01F8
FC01F8
FC01F8
FC01F8
FC01F8
7E01F8
7F03F8
7FCFF0
3FFFF0
1FFFF0
0FFFE0
07FFE0
01FFC0
000FC0
001F80
003F00
003F00
007E00
007E00
00FC00
00FC00
01F800
01F800
03F000
03F000
ENDCHAR
STARTCHAR 003A
ENCODING 58
SWIDTH 225 0
DWIDTH 10 0
BBX 7 23 1 -1
BITMAP
3C
7E
FE
FE
7E
7E
3C
00
00
00
00
00
00
00
00
00
3C
7E
FE
FE
7E
7E
3C
ENDCHAR
STARTCHAR 003B
ENCODING 59
SWIDTH 225 0
DWIDTH 10 0
BBX 8 26 1 -4
BITMAP
3C
7E
FE
FE
7E
7E
3C
00
00
00
00
00
00
00
00
3C
7E
7E
FF
FE
7E
3E
1C
1C
38
10
ENDCHAR
STARTCHAR 003C
ENCODING 60
SWIDTH 427 0
DWIDTH 19 0
BBX 16 26 1 1
BITMAP
007F
00FE
01FE
01FC
03F8
07F8
07F0
0FE0
1FC0
1FC0
3F80
7F00
FF00
FE00
7F00
3F80
3F80
1FC0
0FE0
0FE0
07F0
03F8
03F8
01FC
00FE
00FF
ENDCHAR
STARTCHAR 003D
ENCODING 61
SWIDTH 450 0
DWIDTH 20 0
BBX 18 13 1 7
BITMAP
FFFFC0
FFFFC0
FFFFC0
FFFFC0
FFFFC0
000000
000000
000000
FFFFC0
FFFFC0
FFFFC0
FFFFC0
FFFFC0
ENDCHAR
STARTCHAR 003E
ENCODING 62
SWIDTH 427 0
DWIDTH 19 0
BBX 16 27 1 0
BITMAP
FF00
7F00
3F80
3FC0
1FE0
0FE0
07F0
07F8
03F8
01FC
01FE
00FE
007F
007F
007F
00FE
01FC
03FC
03F8
07F0
0FF0
0FE0
1FC0
3FC0
3F80
7F00
FF00
ENDCHAR
STARTCHAR 003F
ENCODING 63
SWIDTH 495 0
DWIDTH 22 0
BBX 20 33 1 -1
BITMAP
03FC00
0FFF00
1FFFC0
3FFFE0
7FFFE0
7F0FF0
FE03F0
FC03F0
3C03F0
0003F0
0003F0
0007F0
000FE0
001FE0
003FC0
007F80
00FF00
01FE00
01FC00
01F800
01F800
01F800
01F800
01F800
000000
000000
00F000
01F800
01F800
03FC00
01F800
01F800
00F000
ENDCHAR
STARTCHAR 0040
ENCODING 64
SWIDTH 855 0
DWIDTH 38 0
BBX 34 33 2 -1
BITMAP
0001E00000
003FFF0000
00FFFFC000
01FFFFE000
07FC07F800
0FE001FC00
1F80007E00
1F00003E00
3E00001F00
7C03F01F80
7C0FFC0F80
781FFE0780
F83FFF07C0
F07E1F87C0
F07C0F87C0
F0F80787C0
F0F80787C0
F0F807C7C0
F0F80FC7C0
F07C0FFF80
F87F7FFF80
F83FFFFF00
7C1FFCFE00
7C0FFC7800
3E03F00000
1F00000000
1F80008000
0FE0018000
07F80FC000
01FFFFE000
00FFFF8000
001FFE0000
0000E00000
ENDCHAR
STARTCHAR 0041
ENCODING 65
SWIDTH 697 0
DWIDTH 31 0
BBX 28 32 1 0
BITMAP
001F8000
001FC000
001FC000
003FC000
003FE000
003FE000
007FE000
007FF000
00FFF000
00FFF000
00FDF800
01F9F800
01F9FC00
03F0FC00
03F0FC00
03F0FE00
07E07E00
07E07E00
07FFFF00
0FFFFF00
0FFFFF00
1FFFFF80
1FFFFF80
1F801F80
3F801FC0
3F000FC0
3F000FC0
7F000FE0
7E000FE0
FE0007E0
FE0007F0
FC0007F0
ENDCHAR
STARTCHAR 0042
ENCODING 66
SWIDTH 607 0
DWIDTH 27 0
BBX 22 32 3 0
BITMAP
FFE000
FFFE00
FFFF80
FFFFC0
FFFFE0
FFFFF0
F807F0
F803F0
F803F0
F801F0
F803F0
F803F0
F80FE0
FFFFC0
FFFF00
FFFFC0
FFFFE0
FFFFF0
F807F8
F801FC
F800FC
F800FC
F800FC
F800FC
F800FC
F801FC
F807F8
FFFFF8
FFFFF0
FFFFE0
FFFFC0
FFFE00
ENDCHAR
STARTCHAR 0043
ENCODING 67
SWIDTH 630 0
DWIDTH 28 0
BBX 25 33 2 -1
BITMAP
007FC000
01FFF000
07FFF800
0FFFFC00
1FFFFE00
1FE0FF00
3F807F00
7F003C00
7F000000
7E000000
7E000000
FE000000
FC000000
FC000000
FC000000
FC000000
FC000000
FC000000
FC000000
FC000000
FE000000
FE000000
7E000000
7F000000
7F003C00
3F803F80
3FC07F00
1FF1FF00
0FFFFE00
0FFFFC00
03FFF800
01FFF000
003F8000
ENDCHAR
STARTCHAR 0044
ENCODING 68
SWIDTH 630 0
DWIDTH 28 0
BBX 24 32 2 0
BITMAP
FFFC00
FFFF80
FFFFC0
FFFFE0
FFFFF0
FC0FF8
FC03FC
FC01FC
FC00FE
FC007E
FC007E
FC007F
FC007F
FC003F
FC003F
FC003F
FC003F
FC003F
FC003F
FC007F
FC007E
FC007E
FC00FE
FC00FC
FC01FC
FC03F8
FC0FF8
FFFFF0
FFFFE0
FFFFC0
FFFF80
FFFC00
ENDCHAR
STARTCHAR 0045
ENCODING 69
SWIDTH 585 0
DWIDTH 26 0
BBX 22 32 2 0
BITMAP
FFFFFC
FFFFFC
FFFFFC
FFFFFC
FFFFFC
FC0000
FC0000
FC0000
FC0000
FC0000
FC0000
FC0000
FC0000
FFFFF0
FFFFF0
FFFFF0
FFFFF0
FFFFF0
FC0000
FC0000
FC0000
FC0000
FC0000
FC0000
FC0000
FC0000
FC0000
FFFFFC
FFFFFC
FFFFFC
FFFFFC
FFFFFC
ENDCHAR
STARTCHAR 0046
ENCODING 70
SWIDTH 585 0
DWIDTH 26 0
BBX 22 32 2 0
BITMAP
FFFFFC
FFFFFC
FFFFFC
FFFFFC
FFFFFC
FFFFFC
FC0000
FC0000
FC0000
FC0000
FC0000
FC0000
FC0000
FFFFF0
FFFFF0
FFFFF0
FFFFF0
FFFFF0
FC0000
FC0000
FC0000
FC0000
FC0000
FC0000
FC0000
FC0000
FC0000
FC0000
FC0000
FC0000
FC0000
FC0000
ENDCHAR
STARTCHAR 0047
ENCODING 71
SWIDTH 697 0
DWIDTH 31 0
BBX 26 33 2 0
BITMAP
003F8000
01FFE000
03FFF800
0FFFFC00
0FFFFE00
1FF1FE00
3FC07F00
3F803800
7F000000
7E000000
7E000000
FE000000
FC000000
FC000000
FC000000
FC07FFC0
FC07FFC0
FC07FFC0
FC07FFC0
FC07FFC0
FE000FC0
7E000FC0
7E000F80
7F001F80
7F001F80
3F803F80
3FC07F00
1FF0FF00
0FFFFE00
07FFFC00
03FFF800
01FFF000
003F8000
ENDCHAR
STARTCHAR 0048
ENCODING 72
SWIDTH 607 0
DWIDTH 27 0
BBX 23 32 2 0
BITMAP
FC007E
FC007E
FC007E
FC007E
FC007E
FC007E
FC007E
FC007E
FC007E
FC007E
FC007E
FC007E
FC007E
FFFFFE
FFFFFE
FFFFFE
FFFFFE
FFFFFE
FC007E
FC007E
FC007E
FC007E
FC007E
FC007E
FC007E
FC007E
FC007E
FC007E
FC007E
FC007E
FC007E
FC007E
ENDCHAR
STARTCHAR 0049
ENCODING 73
SWIDTH 270 0
DWIDTH 12 0
BBX 6 32 3 0
BITMAP
FC
FC
FC
FC
FC
FC
FC
FC
FC
FC
FC
FC
FC
FC
FC
FC
FC
FC
FC
FC
FC
FC
FC
FC
FC
FC
FC
FC
FC
FC
FC
FC
ENDCHAR
STARTCHAR 004A
ENCODING 74
SWIDTH 607 0
DWIDTH 27 0
BBX 22 33 2 -1
BITMAP
00007C
00007C
00007C
00007C
00007C
00007C
00007C
00007C
00007C
00007C
00007C
00007C
00007C
00007C
00007C
00007C
00007C
00007C
00007C
F8007C
FC007C
FC00FC
FC00FC
7C00FC
7E00FC
7F01F8
3F83F8
3FFFF0
1FFFF0
0FFFE0
07FFC0
03FF00
003800
ENDCHAR
STARTCHAR 004B
ENCODING 75
SWIDTH 652 0
DWIDTH 29 0
BBX 26 32 2 0
BITMAP
FC003F80
FC007F00
FC00FE00
FC01FC00
FC03FC00
FC07F800
FC0FF000
FC0FE000
FC1FC000
FC3F8000
FC7F0000
FCFF0000
FDFE0000
FFFC0000
FFF80000
FFFC0000
FFFE0000
FFFF0000
FFFF0000
FF3F8000
FE3FC000
FC1FC000
FC0FE000
FC07F000
FC07F800
FC03F800
FC01FC00
FC01FE00
FC00FE00
FC007F00
FC003F80
FC003FC0
ENDCHAR
STARTCHAR 004C
ENCODING 76
SWIDTH 585 0
DWIDTH 26 0
BBX 23 32 2 0
BITMAP
FC0000
FC0000
FC0000
FC0000
FC0000
FC0000
FC0000
FC0000
FC0000
FC0000
FC0000
FC0000
FC0000
FC0000
FC0000
FC0000
FC0000
FC0000
FC0000
FC0000
FC0000
FC0000
FC0000
FC0000
FC0000
FC0000
FC0000
FFFFFE
FFFFFE
FFFFFE
FFFFFE
FFFFFE
ENDCHAR
STARTCHAR 004D
ENCODING 77
SWIDTH 765 0
DWIDTH 34 0
BBX 31 32 1 0
BITMAP
FF0001FE
FF8001FE
FF8001FE
FF8003FE
FFC003FE
FFC003FE
FFC007FE
FFE007FE
FFE007FE
FFE00FFE
FFF00FFE
FFF00FBE
FDF01FBE
FDF81FBE
FDF81F3E
FCF83F3E
FCFC3F3E
FCFC3E3E
FC7C7E3E
FC7E7E3E
FC7E7C3E
FC3EFC3E
FC3FFC3E
FC3FF83E
FC1FF83E
FC1FF83E
FC1FF03E
FC1FF03E
FC0FF03E
FC0FF03E
FC0FE03E
FC07E03E
ENDCHAR
STARTCHAR 004E
ENCODING 78
SWIDTH 652 0
DWIDTH 29 0
BBX 23 32 3 0
BITMAP
FC003E
FC003E
FE003E
FE003E
FF003E
FF803E
FF803E
FFC03E
FFC03E
FFE03E
FFF03E
FBF03E
FBF83E
F9F83E
F8FC3E
F8FE3E
F87E3E
F87F3E
F83F3E
F83FBE
F81FFE
F80FFE
F80FFE
F807FE
F807FE
F803FE
F801FE
F801FE
F800FE
F800FE
F8007E
F8007E
ENDCHAR
STARTCHAR 004F
ENCODING 79
SWIDTH 697 0
DWIDTH 31 0
BBX 27 32 2 0
BITMAP
003F8000
01FFF000
03FFF800
07FFFC00
0FFFFE00
1FF0FF00
3FC07F80
3F803F80
7F001FC0
7E000FC0
7E000FC0
7E000FC0
FE000FE0
FC0007E0
FC0007E0
FC0007E0
FC0007E0
FC0007E0
FC000FE0
FE000FC0
7E000FC0
7E000FC0
7F001FC0
3F001F80
3F803F80
1FC07F00
1FF1FF00
0FFFFE00
07FFFC00
03FFF800
01FFF000
003F8000
ENDCHAR
STARTCHAR 0050
ENCODING 80
SWIDTH 562 0
DWIDTH 25 0
BBX 20 32 3 0
BITMAP
FFF800
FFFE00
FFFF80
FFFFC0
FFFFE0
F81FE0
F807F0
F803F0
F803F0
F803F0
F803F0
F803F0
F807F0
F81FE0
FFFFE0
FFFFC0
FFFF80
FFFF00
FFF800
F80000
F80000
F80000
F80000
F80000
F80000
F80000
F80000
F80000
F80000
F80000
F80000
F80000
ENDCHAR
STARTCHAR 0051
ENCODING 81
SWIDTH 697 0
DWIDTH 31 0
BBX 27 33 2 -1
BITMAP
007FC000
01FFF000
03FFF800
07FFFC00
0FFFFE00
1FE0FF00
3F803F80
3F803F80
7F001F80
7E000FC0
7E000FC0
7E000FC0
FE000FC0
FC0007E0
FC0007E0
FC0007E0
FC0007E0
FC0007E0
FC0007E0
FE000FC0
7E008FC0
7E01CFC0
7E03EFC0
7F03FFC0
3F07FF80
3F83FF80
1FC0FF00
1FF1FF80
0FFFFFE0
07FFFFC0
03FFFFC0
00FFE380
003F8100
ENDCHAR
STARTCHAR 0052
ENCODING 82
SWIDTH 585 0
DWIDTH 26 0
BBX 22 32 3 0
BITMAP
FFF800
FFFE00
FFFF80
FFFFC0
FFFFE0
F81FE0
F807F0
F803F0
F803F0
F803F0
F803F0
F803F0
F807F0
F81FE0
FFFFE0
FFFFC0
FFFF80
FFFF00
FFFC00
F87E00
F87E00
F83F00
F81F80
F81F80
F80FC0
F80FC0
F807E0
F807F0
F803F0
F803F8
F801F8
F801FC
ENDCHAR
STARTCHAR 0053
ENCODING 83
SWIDTH 585 0
DWIDTH 26 0
BBX 22 33 2 0
BITMAP
00FE00
07FF80
0FFFE0
1FFFF0
3FFFF8
3F87F8
7F01FC
7E0080
7E0000
7E0000
7F0000
7F8000
3FE000
3FF800
1FFF00
07FFC0
01FFE0
007FF0
001FF8
0003FC
0001FC
0000FC
0000FC
FC00FC
FC00FC
FE00FC
7F01FC
7FC7FC
3FFFF8
1FFFF0
0FFFE0
07FFC0
00FE00
ENDCHAR
STARTCHAR 0054
ENCODING 84
SWIDTH 652 0
DWIDTH 29 0
BBX 26 32 2 0
BITMAP
FFFFFFC0
FFFFFFC0
FFFFFFC0
FFFFFFC0
FFFFFFC0
003F0000
003F0000
003F0000
003F0000
003F0000
003F0000
003F0000
003F0000
003F0000
003F0000
003F0000
003F0000
003F0000
003F0000
003F0000
003F0000
003F0000
003F0000
003F0000
003F0000
003F0000
003F0000
003F0000
003F0000
003F0000
003F0000
003F0000
ENDCHAR
STARTCHAR 0055
ENCODING 85
SWIDTH 652 0
DWIDTH 29 0
BBX 24 32 2 0
BITMAP
FC003F
FC003F
FC003F
FC003F
FC003F
FC003F
FC003F
FC003F
FC003F
FC003F
FC003F
FC003F
FC003F
FC003F
FC003F
FC003F
FC003F
FC003F
FC003F
7C003F
7E003F
7E003F
7E007E
7E007E
3F00FE
3F80FC
1FE3FC
1FFFF8
0FFFF0
07FFE0
03FFC0
007F00
ENDCHAR
STARTCHAR 0056
ENCODING 86
SWIDTH 630 0
DWIDTH 28 0
BBX 25 32 2 0
BITMAP
FC001F80
FC003F00
FC003F00
7E003F00
7E007E00
7E007E00
7F007E00
3F007E00
3F00FC00
3F00FC00
1F80FC00
1F81F800
1F81F800
1FC1F800
0FC1F800
0FC3F000
0FC3F000
07E3F000
07E7E000
07E7E000
07F7E000
03F7E000
03FFC000
03FFC000
01FFC000
01FF8000
01FF8000
01FF8000
00FF8000
00FF0000
00FF0000
007F0000
ENDCHAR
STARTCHAR 0057
ENCODING 87
SWIDTH 810 0
DWIDTH 36 0
BBX 32 32 2 0
BITMAP
FC00001F
FC07F01F
FC07F01F
FC07F01F
FC0FF01F
FE0FF81F
7E0FF83E
7E0FF83E
7E1FF83E
7E1FFC3E
7E1FFC3E
7E1FFC3E
3F1FFC7C
3F3EFE7C
3F3EFE7C
3F3E7E7C
3F3E7E7C
3F7C7F7C
3F7C7F7C
1FFC3FF8
1FFC3FF8
1FF83FF8
1FF83FF8
1FF81FF8
1FF81FF8
0FF01FF0
0FF01FF0
0FF01FF0
0FF00FF0
0FF00FF0
0FE00FF0
0FE00FE0
ENDCHAR
STARTCHAR 0058
ENCODING 88
SWIDTH 630 0
DWIDTH 28 0
BBX 25 32 1 0
BITMAP
7E003F80
7F003F80
3F007F00
3F807E00
1F80FE00
1FC0FC00
0FC1FC00
07E1F800
07E3F800
03F3F000
03FFE000
01FFE000
01FFC000
00FFC000
007F8000
007F8000
007F8000
007F8000
00FFC000
01FFC000
01FFE000
03FFE000
03FFF000
07F3F800
0FE3F800
0FE1FC00
1FC1FC00
1FC0FE00
3F80FF00
3F807F00
7F007F80
FF003F80
ENDCHAR
STARTCHAR 0059
ENCODING 89
SWIDTH 652 0
DWIDTH 29 0
BBX 25 32 2 0
BITMAP
FC001F80
FC003F00
7E003F00
3F007E00
3F00FC00
1F80FC00
1F81F800
0FC1F800
07C3F000
07E3E000
03F7E000
03F7C000
01FFC000
00FF8000
00FF0000
007F0000
007E0000
007E0000
007E0000
007E0000
007E0000
007E0000
007E0000
007E0000
007E0000
007E0000
007E0000
007E0000
007E0000
007E0000
007E0000
007E0000
ENDCHAR
STARTCHAR 005A
ENCODING 90
SWIDTH 697 0
DWIDTH 31 0
BBX 26 32 2 0
BITMAP
7FFFFFC0
7FFFFF80
7FFFFF80
7FFFFF00
7FFFFE00
00007E00
0000FC00
0001F800
0001F800
0003F000
0007F000
0007E000
000FC000
000FC000
001F8000
003F0000
003F0000
007E0000
00FC0000
00FC0000
01F80000
03F00000
03F00000
07E00000
0FE00000
0FC00000
1F800000
3FFFFFC0
3FFFFFC0
7FFFFFC0
7FFFFFC0
FFFFFFC0
ENDCHAR
STARTCHAR 005B
ENCODING 91
SWIDTH 360 0
DWIDTH 16 0
BBX 11 35 3 -2
BITMAP
FFE0
FFE0
FFE0
FFE0
FFE0
F800
F800
F800
F800
F800
F800
F800
F800
F800
F800
F800
F800
F800
F800
F800
F800
F800
F800
F800
F800
F800
F800
F800
F800
F800
FFE0
FFE0
FFE0
FFE0
FFE0
ENDCHAR
STARTCHAR 005C
ENCODING 92
SWIDTH 427 0
DWIDTH 19 0
BBX 19 33 0 0
BITMAP
FC0000
FC0000
FE0000
7E0000
7F0000
3F0000
3F0000
3F8000
1F8000
1FC000
0FC000
0FC000
0FE000
07E000
07F000
03F000
03F800
03F800
01F800
01FC00
00FC00
00FE00
00FE00
007E00
007F00
003F00
003F80
003F80
001FC0
001FC0
000FC0
000FE0
000FE0
ENDCHAR
STARTCHAR 005D
ENCODING 93
SWIDTH 360 0
DWIDTH 16 0
BBX 10 35 3 -2
BITMAP
FFC0
FFC0
FFC0
FFC0
FFC0
07C0
07C0
07C0
07C0
07C0
07C0
07C0
07C0
07C0
07C0
07C0
07C0
07C0
07C0
07C0
07C0
07C0
07C0
07C0
07C0
07C0
07C0
07C0
07C0
07C0
FFC0
FFC0
FFC0
FFC0
FFC0
ENDCHAR
STARTCHAR 005E
ENCODING 94
SWIDTH 517 0
DWIDTH 23 0
BBX 17 7 3 25
BITMAP
07F000
0FF800
1FF800
3FFC00
3F7E00
7E3F00
FC1F80
ENDCHAR
STARTCHAR 005F
ENCODING 95
SWIDTH 607 0
DWIDTH 27 0
BBX 23 5 2 -6
BITMAP
FFFFFE
FFFFFE
FFFFFE
FFFFFE
FFFFFE
ENDCHAR
STARTCHAR 0060
ENCODING 96
SWIDTH 270 0
DWIDTH 12 0
BBX 8 10 2 24
BITMAP
70
F0
F8
FC
7C
7E
3F
1F
0F
06
ENDCHAR
STARTCHAR 0061
ENCODING 97
SWIDTH 517 0
DWIDTH 23 0
BBX 19 24 2 0
BITMAP
1FF800
7FFE00
3FFF80
1FFF80
181FC0
000FC0
0007E0
0387E0
0FF3E0
3FFBE0
7FFBE0
7FFFE0
FE0FE0
FC07E0
F803E0
F803E0
F803E0
FC07E0
FE0FE0
7FFFE0
7FFFE0
3FFBE0
1FF3E0
07E000
ENDCHAR
STARTCHAR 0062
ENCODING 98
SWIDTH 540 0
DWIDTH 24 0
BBX 20 31 3 0
BITMAP
F80000
F80000
F80000
F80000
F80000
F80000
F80000
F80000
F87E00
F9FF00
FBFF80
FFFFC0
FFFFE0
FF0FE0
FE07E0
FC03F0
F803F0
F803F0
F803F0
F803F0
F803F0
F803F0
F803F0
FC07F0
FE07E0
FF1FE0
FFFFE0
FFFFC0
FBFF80
F8FF00
007E00
ENDCHAR
STARTCHAR 0063
ENCODING 99
SWIDTH 517 0
DWIDTH 23 0
BBX 19 23 2 0
BITMAP
01FC00
07FF00
0FFF80
1FFFC0
3FFFE0
7F87C0
7E0300
FE0000
FC0000
FC0000
FC0000
FC0000
FC0000
FC0000
FC0000
FE0000
7E0300
7F87C0
3FFFE0
1FFFC0
0FFF80
07FF00
00FC00
ENDCHAR
STARTCHAR 0064
ENCODING 100
SWIDTH 540 0
DWIDTH 24 0
BBX 20 31 2 0
BITMAP
0003F0
0003F0
0003F0
0003F0
0003F0
0003F0
0003F0
0003F0
07C3F0
1FF3F0
3FFBF0
3FFFF0
7FFFF0
7F0FF0
FE07F0
FC03F0
FC03F0
F803F0
F801F0
F801F0
F801F0
F803F0
FC03F0
FC03F0
FE07F0
7F0FF0
7FFFF0
3FFFF0
3FFBF0
1FF3F0
07C000
ENDCHAR
STARTCHAR 0065
ENCODING 101
SWIDTH 540 0
DWIDTH 24 0
BBX 20 23 2 0
BITMAP
01F800
07FE00
0FFF80
1FFFC0
3FFFC0
7F0FE0
7E03E0
7C03F0
FC01F0
FFFFF0
FFFFF0
FFFFF0
FFFFF0
FC0000
FC0000
7C0000
7E0000
7F0700
3FFFC0
1FFFC0
0FFF80
07FF00
00FC00
ENDCHAR
STARTCHAR 0066
ENCODING 102
SWIDTH 382 0
DWIDTH 17 0
BBX 15 32 2 0
BITMAP
00F8
03FE
07FE
0FFC
1FF8
1F80
1F00
1F00
1F00
FFF0
FFF0
FFF0
FFF0
FFF0
1F00
1F00
1F00
1F00
1F00
1F00
1F00
1F00
1F00
1F00
1F00
1F00
1F00
1F00
1F00
1F00
1F00
1F00
ENDCHAR
STARTCHAR 0067
ENCODING 103
SWIDTH 562 0
DWIDTH 25 0
BBX 20 32 2 -9
BITMAP
07C000
1FF3F0
3FFBF0
3FFFF0
7FFFF0
7F0FF0
FE07F0
FC03F0
FC03F0
F803F0
F801F0
F801F0
F801F0
F803F0
FC03F0
FC03F0
FE07F0
7F0FF0
7FFFF0
3FFFF0
3FFBF0
1FF3F0
07C3F0
0003F0
FC03F0
FC03F0
7E07E0
7FFFE0
3FFFC0
1FFF80
0FFF00
03FC00
ENDCHAR
STARTCHAR 0068
ENCODING 104
SWIDTH 540 0
DWIDTH 24 0
BBX 19 32 3 0
BITMAP
F80000
F80000
F80000
F80000
F80000
F80000
F80000
F80000
F87C00
F8FF00
FBFF80
FBFFC0
FFFFC0
FF1FC0
FC0FE0
FC07E0
FC07E0
F807E0
F807E0
F807E0
F807E0
F807E0
F807E0
F807E0
F807E0
F807E0
F807E0
F807E0
F807E0
F807E0
F807E0
F807E0
ENDCHAR
STARTCHAR 0069
ENCODING 105
SWIDTH 270 0
DWIDTH 12 0
BBX 6 32 3 0
BITMAP
78
FC
FC
FC
FC
78
00
00
00
FC
FC
FC
FC
FC
FC
FC
FC
FC
FC
FC
FC
FC
FC
FC
FC
FC
FC
FC
FC
FC
FC
FC
ENDCHAR
STARTCHAR 006A
ENCODING 106
SWIDTH 270 0
DWIDTH 12 0
BBX 14 41 -5 -9
BITMAP
0078
00FC
00FC
00FC
00FC
00F8
0070
0000
0000
00FC
00FC
00FC
00FC
00FC
00FC
00FC
00FC
00FC
00FC
00FC
00FC
00FC
00FC
00FC
00FC
00FC
00FC
00FC
00FC
00FC
00FC
00FC
00FC
00FC
00F8
11F8
3FF0
7FF0
FFE0
FFC0
3F00
ENDCHAR
STARTCHAR 006B
ENCODING 107
SWIDTH 495 0
DWIDTH 22 0
BBX 18 31 3 0
BITMAP
F80000
F80000
F80000
F80000
F80000
F80000
F80000
F80000
F81FC0
F83F80
F87F00
F8FE00
F8FC00
F9F800
FBF800
FFF000
FFE000
FFC000
FFC000
FFC000
FFE000
FBF000
FBF800
F9F800
F8FC00
F8FE00
F87E00
F83F00
F81F80
F81FC0
F80FC0
ENDCHAR
STARTCHAR 006C
ENCODING 108
SWIDTH 270 0
DWIDTH 12 0
BBX 8 32 3 0
BITMAP
FC
FC
FC
FC
FC
FC
FC
FC
FC
FC
FC
FC
FC
FC
FC
FC
FC
FC
FC
FC
FC
FC
FC
FC
FC
FC
FC
FF
FF
7F
3F
1F
ENDCHAR
STARTCHAR 006D
ENCODING 109
SWIDTH 765 0
DWIDTH 34 0
BBX 29 24 3 0
BITMAP
00780780
F9FE1FC0
FBFE3FE0
FBFF7FF0
FFFF7FF0
FE3FE3F0
FC1FC3F8
FC1FC1F8
F81F81F8
F81F81F8
F81F81F8
F81F81F8
F81F81F8
F81F81F8
F81F81F8
F81F81F8
F81F81F8
F81F81F8
F81F81F8
F81F81F8
F81F81F8
F81F81F8
F81F81F8
F81F81F8
ENDCHAR
STARTCHAR 006E
ENCODING 110
SWIDTH 540 0
DWIDTH 24 0
BBX 19 24 3 0
BITMAP
007C00
F8FF00
FBFF80
FBFFC0
FFFFC0
FF1FC0
FC0FE0
FC07E0
FC07E0
F807E0
F807E0
F807E0
F807E0
F807E0
F807E0
F807E0
F807E0
F807E0
F807E0
F807E0
F807E0
F807E0
F807E0
F807E0
ENDCHAR
STARTCHAR 006F
ENCODING 111
SWIDTH 540 0
DWIDTH 24 0
BBX 20 25 2 -1
BITMAP
01F800
07FF00
0FFF80
1FFFC0
3FFFE0
7F8FE0
7E07F0
7C03F0
FC01F0
FC01F0
FC01F0
F801F0
F801F0
F801F0
FC01F0
FC01F0
FC03F0
7C03F0
7E07E0
7FFFE0
3FFFC0
1FFFC0
0FFF80
07FE00
007000
ENDCHAR
STARTCHAR 0070
ENCODING 112
SWIDTH 562 0
DWIDTH 25 0
BBX 20 32 3 -9
BITMAP
007E00
F9FF00
FBFF80
FFFFC0
FFFFE0
FF0FE0
FE07E0
FC03F0
F803F0
F803F0
F803F0
F803F0
F803F0
F803F0
F803F0
FC07F0
FE07E0
FF1FE0
FFFFE0
FFFFC0
FBFF80
F8FF00
F87E00
F80000
F80000
F80000
F80000
F80000
F80000
F80000
F80000
F80000
ENDCHAR
STARTCHAR 0071
ENCODING 113
SWIDTH 562 0
DWIDTH 25 0
BBX 22 32 2 -9
BITMAP
07C000
1FF3F0
3FFBF0
3FFFF0
7FFFF0
7F0FF0
FE07F0
FC03F0
FC03F0
F803F0
F801F0
F801F0
F801F0
F803F0
FC03F0
FC03F0
FE07F0
7F0FF0
7FFFF0
3FFFF0
3FFBF0
1FF3F0
07C3F0
0003F0
0003F0
0003F0
0001F0
0001FC
0001FC
0000FC
0000FC
00003C
ENDCHAR
STARTCHAR 0072
ENCODING 114
SWIDTH 427 0
DWIDTH 19 0
BBX 15 24 3 0
BITMAP
0020
F8FC
F9FE
FBFE
FFFC
FFBC
FE00
FC00
FC00
F800
F800
F800
F800
F800
F800
F800
F800
F800
F800
F800
F800
F800
F800
F800
ENDCHAR
STARTCHAR 0073
ENCODING 115
SWIDTH 472 0
DWIDTH 21 0
BBX 17 23 2 0
BITMAP
07F000
1FFC00
3FFE00
7FFF00
7FFF00
7E1F80
7C0F00
7C0000
7F0000
7FE000
3FF800
0FFE00
03FF00
00FF80
003F80
000F80
F80F80
FC1F80
FFFF80
7FFF00
3FFE00
1FFC00
07F000
ENDCHAR
STARTCHAR 0074
ENCODING 116
SWIDTH 337 0
DWIDTH 15 0
BBX 12 29 2 -1
BITMAP
1F00
1F00
1F00
1F00
1F00
FFF0
FFF0
FFF0
FFF0
FFF0
1F00
1F00
1F00
1F00
1F00
1F00
1F00
1F00
1F00
1F00
1F00
1F00
1F00
1F80
1FE0
1FE0
0FE0
07E0
0020
ENDCHAR
STARTCHAR 0075
ENCODING 117
SWIDTH 540 0
DWIDTH 24 0
BBX 20 23 2 0
BITMAP
FC03F0
FC03F0
FC03F0
FC03F0
FC03F0
FC03F0
FC03F0
FC03F0
FC03F0
FC03F0
FC03F0
FC03F0
FC03F0
FC03F0
FC03F0
7E07F0
7E07F0
7F1FF0
7FFFF0
3FFFF0
1FFBF0
1FF3F0
07C000
ENDCHAR
STARTCHAR 0076
ENCODING 118
SWIDTH 517 0
DWIDTH 23 0
BBX 19 23 2 0
BITMAP
FC07E0
FC07C0
FC07C0
7C07C0
7E0F80
7E0F80
3E0F80
3E1F00
3F1F00
1F1F00
1F1F00
1FBE00
0FBE00
0FBE00
0FFC00
0FFC00
07FC00
07F800
07F800
03F800
03F000
03F000
01F000
ENDCHAR
STARTCHAR 0077
ENCODING 119
SWIDTH 697 0
DWIDTH 31 0
BBX 29 23 1 0
BITMAP
FC0F80F8
7C0FC1F8
7C0FC1F0
7E0FC1F0
3E1FC1F0
3E1FC3E0
3E1FE3E0
3F1FE3E0
1F1FE3E0
1F3DE7C0
1F3DE7C0
0FBDF7C0
0FBDF780
0FB9FF80
07F8FF80
07F8FF00
07F8FF00
07F8FF00
03F07F00
03F07E00
03F07E00
01F07E00
01F07C00
ENDCHAR
STARTCHAR 0078
ENCODING 120
SWIDTH 517 0
DWIDTH 23 0
BBX 21 23 1 0
BITMAP
FE03F8
7E03F0
7F07F0
3F0FE0
1F8FC0
1F9FC0
0FDF80
07FF00
07FF00
03FE00
03FC00
01FC00
03FE00
03FE00
07FF00
0FFF00
0FDF80
1F9FC0
3F8FC0
3F0FE0
7F07F0
7E03F0
FE03F8
ENDCHAR
STARTCHAR 0079
ENCODING 121
SWIDTH 540 0
DWIDTH 24 0
BBX 20 32 2 -9
BITMAP
FC03F0
FC03F0
FC03F0
FC03F0
FC03F0
FC03F0
FC03F0
FC03F0
FC03F0
FC03F0
FC03F0
FC03F0
FC03F0
FC03F0
FC03F0
7E07F0
7E07F0
7F1FF0
7FFFF0
3FFFF0
1FFBF0
1FF3F0
07C3F0
0003F0
0003F0
0C07E0
3E0FE0
7FFFC0
3FFF80
1FFF00
0FFE00
01F800
ENDCHAR
STARTCHAR 007A
ENCODING 122
SWIDTH 495 0
DWIDTH 22 0
BBX 18 23 2 0
BITMAP
FFFFC0
FFFF80
FFFF80
FFFF00
FFFF00
007E00
00FE00
00FC00
01F800
01F800
03F000
03F000
07E000
0FE000
0FC000
1FC000
1F8000
3F8000
3FFF80
7FFF80
7FFF80
FFFF80
FFFF80
ENDCHAR
STARTCHAR 007B
ENCODING 123
SWIDTH 360 0
DWIDTH 16 0
BBX 12 36 2 -2
BITMAP
01F0
07F0
07F0
0FF0
0FF0
0F80
0F80
0F80
0F80
0F80
0F00
1F00
1F00
1F00
1F00
3F00
3E00
7C00
FC00
3E00
3F00
1F00
1F00
1F00
1F00
0F00
0F80
0F80
0F80
0F80
0F80
0FF0
0FF0
0FF0
07F0
01F0
ENDCHAR
STARTCHAR 007C
ENCODING 124
SWIDTH 225 0
DWIDTH 10 0
BBX 6 32 2 0
BITMAP
FC
FC
FC
FC
FC
FC
FC
FC
FC
FC
FC
FC
FC
FC
FC
FC
FC
FC
FC
FC
FC
FC
FC
FC
FC
FC
FC
FC
FC
FC
FC
FC
ENDCHAR
STARTCHAR 007D
ENCODING 125
SWIDTH 360 0
DWIDTH 16 0
BBX 11 36 3 -2
BITMAP
F800
FC00
FE00
FE00
FF00
3F00
1F00
1F00
1F00
1F00
1F00
1F00
1F00
1F00
0F80
0F80
0FC0
07E0
07E0
0FC0
0F80
0F80
1F00
1F00
1F00
1F00
1F00
1F00
1F00
1F00
3F00
FF00
FE00
FE00
FC00
F800
ENDCHAR
STARTCHAR 007E
ENCODING 126
SWIDTH 360 0
DWIDTH 16 0
BBX 14 9 1 11
BITMAP
3C00
7E00
FF04
FFDC
FFFC
EFFC
83FC
01F8
00F0
ENDCHAR
STARTCHAR 00A1
ENCODING 161
SWIDTH 157 0
DWIDTH 7 0
BBX 7 33 -1 -1
BITMAP
78
FC
FE
FE
FE
FC
38
00
00
78
7C
7C
7C
7C
7C
7C
7C
7C
7C
7C
7C
7C
7C
7C
7C
7C
FC
FC
FC
FC
FC
7C
10
ENDCHAR
STARTCHAR 00A2
ENCODING 162
SWIDTH 427 0
DWIDTH 19 0
BBX 14 24 2 2
BITMAP
07C0
07C0
07C0
07C0
07C0
1FE0
3FF8
7FFC
FFF8
FFF0
FC20
F800
F800
F800
F820
FEF0
FFF8
7FFC
3FF8
0FE0
07C0
07C0
07C0
07C0
ENDCHAR
STARTCHAR 00A3
ENCODING 163
SWIDTH 607 0
DWIDTH 27 0
BBX 24 32 2 0
BITMAP
003F00
00FF80
01FFC0
01FFE0
03FFE0
03F3F0
03E1F0
07E0E0
07E000
07E000
07C000
07C000
07C000
07C000
07C000
FFFFC0
FFFFC0
FFFFC0
FFFFC0
FFFFC0
0FC000
0FC000
0FC000
0FC000
1FC000
1F8000
1F800C
3FFFFE
3FFFFF
3FFFFF
7FFFFE
7FFFF8
ENDCHAR
STARTCHAR 00A4
ENCODING 164
SWIDTH 472 0
DWIDTH 21 0
BBX 19 19 1 7
BITMAP
FE0FE0
FE0FE0
FFFFE0
FFFFE0
FFFFE0
FFFFE0
FFFFE0
3FBF80
3F0F80
3F0F80
3F0F80
3FBF80
FFFFE0
FFFFE0
FFFFE0
FFFFE0
FFFFE0
FE0FE0
FE0FE0
ENDCHAR
STARTCHAR 00A5
ENCODING 165
SWIDTH 562 0
DWIDTH 25 0
BBX 22 31 1 0
BITMAP
FC00FC
FE00FC
7E00F8
7F01F8
3F01F0
3F03E0
1F83E0
1F87C0
0FC7C0
0FCF80
07EF80
07FF00
3FFFE0
3FFFE0
3FFFE0
3FFFE0
3FFFE0
00FC00
00FC00
00FC00
3FFFE0
3FFFE0
3FFFE0
3FFFE0
3FFFE0
00FC00
00FC00
00FC00
00FC00
00FC00
00FC00
ENDCHAR
STARTCHAR 00A6
ENCODING 166
SWIDTH 202 0
DWIDTH 9 0
BBX 5 31 2 0
BITMAP
F8
F8
F8
F8
F8
F8
F8
F8
F8
F8
F8
F8
F8
F8
00
00
00
F8
F8
F8
F8
F8
F8
F8
F8
F8
F8
F8
F8
F8
F8
ENDCHAR
STARTCHAR 00A7
ENCODING 167
SWIDTH 337 0
DWIDTH 15 0
BBX 13 28 1 1
BITMAP
0F80
1FC0
3FE0
7FF0
7FF0
FCE0
F800
FF00
FFC0
FFE0
FFF0
FBF0
F9F8
F9F8
FCF8
7CF8
7FF8
3FF8
3FF8
1FF8
02F8
18F8
FDF0
7FF0
7FE0
3FE0
1FC0
0700
ENDCHAR
STARTCHAR 00A8
ENCODING 168
SWIDTH 450 0
DWIDTH 20 0
BBX 17 7 2 15
BITMAP
780E00
FC3F00
FC3F80
FE3F80
FE3F80
FC3F00
781E00
ENDCHAR
STARTCHAR 00A9
ENCODING 169
SWIDTH 540 0
DWIDTH 24 0
BBX 24 24 -2 4
BITMAP
007E00
03FFC0
07FFE0
0FFFF0
1F81F8
3E007C
7C3E3E
78FF1E
78FE0E
71FC0F
F1C00F
F1C00F
F1C00F
F1E00F
79FE0E
78FF1E
7C7E1E
3C003C
3F007C
1F81F8
0FFFF0
07FFE0
03FFC0
007E00
ENDCHAR
STARTCHAR 00AB
ENCODING 171
SWIDTH 450 0
DWIDTH 20 0
BBX 16 12 1 12
BITMAP
0F1F
1F1E
3E3E
3C7C
7C78
F8F8
F8F8
7C78
3C7C
3E3E
1F1E
0F1F
ENDCHAR
STARTCHAR 00AC
ENCODING 172
SWIDTH 540 0
DWIDTH 24 0
BBX 19 13 3 7
BITMAP
FFFFE0
FFFFE0
FFFFE0
FFFFE0
FFFFE0
0003E0
0003E0
0003E0
0003E0
0003E0
0003E0
0003E0
0003E0
ENDCHAR
STARTCHAR 00AD
ENCODING 173
SWIDTH 472 0
DWIDTH 21 0
BBX 17 5 2 15
BITMAP
FFFF80
FFFF80
FFFF80
FFFF80
FFFF80
ENDCHAR
STARTCHAR 00AE
ENCODING 174
SWIDTH 607 0
DWIDTH 27 0
BBX 23 24 2 9
BITMAP
00FE00
03FF80
0FFFC0
1FFFE0
3FCFF0
7E01F8
7DF8F8
F9FE7C
F9FE3C
F1CF3C
F1C73E
F1CE3E
F1FE3E
F1FC3E
F1DC3C
F9DE3C
79CE7C
7DCFF8
7E01F8
3FC7F0
1FFFE0
0FFFC0
03FF80
00FE00
ENDCHAR
STARTCHAR 00AF
ENCODING 175
SWIDTH 337 0
DWIDTH 15 0
BBX 13 5 1 20
BITMAP
FFF8
FFF8
FFF8
FFF8
FFF8
ENDCHAR
STARTCHAR 00B0
ENCODING 176
SWIDTH 382 0
DWIDTH 17 0
BBX 13 14 0 18
BITMAP
0F80
3FE0
7FF0
FFF8
F078
F078
E038
E038
F078
F8F8
7FF0
3FE0
1FC0
0200
ENDCHAR
STARTCHAR 00B1
ENCODING 177
SWIDTH 472 0
DWIDTH 21 0
BBX 17 26 3 4
BITMAP
03E000
03E000
03E000
03E000
03E000
03E000
03E000
FFFF80
FFFF80
FFFF80
FFFF80
FFFF80
03E000
03E000
03E000
03E000
03E000
03E000
03E000
000000
000000
FFFF80
FFFF80
FFFF80
FFFF80
FFFF80
ENDCHAR
STARTCHAR 00B4
ENCODING 180
SWIDTH 292 0
DWIDTH 13 0
BBX 9 10 2 24
BITMAP
0600
0F00
1F80
1F80
3F00
7E00
7C00
F800
7800
3000
ENDCHAR
STARTCHAR 00B5
ENCODING 181
SWIDTH 540 0
DWIDTH 24 0
BBX 19 28 3 -8
BITMAP
F803E0
F803E0
F803E0
F803E0
F803E0
F803E0
F803E0
F803E0
F803E0
F803E0
FC07E0
FC07E0
FC07E0
FE0FE0
FF1FE0
FFFFE0
FFFFE0
FFFFE0
FBFBE0
F8F000
F80000
F80000
F80000
F80000
F80000
F80000
F80000
F80000
ENDCHAR
STARTCHAR 00B6
ENCODING 182
SWIDTH 630 0
DWIDTH 28 0
BBX 23 31 2 0
BITMAP
003FFE
01FFFE
07FFFE
0FFFFE
3FFE7E
3FFC7E
7F7C7E
7C7C7E
FC7C7E
FC7C7E
FC7C7E
7E7C7E
7F7C7E
3FFC7E
3FFFFE
0FFFFE
07FFFE
00FFFE
007FFE
007C7E
007C7E
007C7E
007C7E
007C7E
007C7E
007C7E
007FFE
007FFE
007FFE
007FFE
007FFE
ENDCHAR
STARTCHAR 00B7
ENCODING 183
SWIDTH 247 0
DWIDTH 11 0
BBX 7 7 2 13
BITMAP
3C
7E
FE
FE
FE
7C
38
ENDCHAR
STARTCHAR 00B8
ENCODING 184
SWIDTH 247 0
DWIDTH 11 0
BBX 8 9 1 -7
BITMAP
0E
3E
1F
1F
1F
7F
FE
78
30
ENDCHAR
STARTCHAR 00BB
ENCODING 187
SWIDTH 472 0
DWIDTH 21 0
BBX 16 12 3 12
BITMAP
F8F8
7CF8
3C7C
3E3E
1F3E
0F1F
0F1F
1F1E
3E3E
3C7C
7C78
F8F8
ENDCHAR
STARTCHAR 00BF
ENCODING 191
SWIDTH 472 0
DWIDTH 21 0
BBX 20 33 -1 -1
BITMAP
00F800
01FC00
01FC00
01FC00
01FC00
00F800
006000
000000
000000
00F800
00F800
00F800
01F800
01F800
03F800
07F800
0FF000
1FE000
3FC000
7F8000
7F0000
FE0000
FC0000
FC0000
FC03F0
FC03F0
FE07F0
7FFFE0
7FFFE0
3FFFC0
1FFF80
07FF00
00F800
ENDCHAR
STARTCHAR 00C0
ENCODING 192
SWIDTH 630 0
DWIDTH 28 0
BBX 28 43 1 0
BITMAP
00700000
00F00000
00F80000
00FC0000
00FC0000
007E0000
003F0000
001F0000
000F0000
00060000
00000000
001F8000
001FC000
001FC000
003FC000
003FE000
003FE000
007FE000
007FF000
00FFF000
00FFF000
00FDF800
01F9F800
01F9FC00
03F0FC00
03F0FC00
03F0FE00
07E07E00
07E07E00
07FFFF00
0FFFFF00
0FFFFF00
1FFFFF80
1FFFFF80
1F801F80
3F801FC0
3F000FC0
3F000FC0
7F000FE0
7E000FE0
FE0007E0
FE0007F0
FC0007F0
ENDCHAR
STARTCHAR 00C1
ENCODING 193
SWIDTH 630 0
DWIDTH 28 0
BBX 28 43 1 0
BITMAP
00006000
0000F000
0001F800
0001F800
0003F000
0007E000
0007C000
000F8000
00078000
00070000
00000000
001F8000
001FC000
001FC000
003FC000
003FE000
003FE000
007FE000
007FF000
00FFF000
00FFF000
00FDF800
01F9F800
01F9FC00
03F0FC00
03F0FC00
03F0FE00
07E07E00
07E07E00
07FFFF00
0FFFFF00
0FFFFF00
1FFFFF80
1FFFFF80
1F801F80
3F801FC0
3F000FC0
3F000FC0
7F000FE0
7E000FE0
FE0007E0
FE0007F0
FC0007F0
ENDCHAR
STARTCHAR 00C2
ENCODING 194
SWIDTH 630 0
DWIDTH 28 0
BBX 28 41 1 0
BITMAP
001FC000
003FC000
007FE000
00FFF000
00F9F800
01F8FC00
03F07E00
00000000
00000000
001F8000
001FC000
001FC000
003FC000
003FE000
003FE000
007FE000
007FF000
00FFF000
00FFF000
00FDF800
01F9F800
01F9FC00
03F0FC00
03F0FC00
03F0FE00
07E07E00
07E07E00
07FFFF00
0FFFFF00
0FFFFF00
1FFFFF80
1FFFFF80
1F801F80
3F801FC0
3F000FC0
3F000FC0
7F000FE0
7E000FE0
FE0007E0
FE0007F0
FC0007F0
ENDCHAR
STARTCHAR 00C3
ENCODING 195
SWIDTH 630 0
DWIDTH 28 0
BBX 28 42 1 0
BITMAP
00780000
00FC0800
01FE1800
01FFF800
01FFF800
01CFF800
0183F800
0001F000
00000000
00000000
001F8000
001FC000
001FC000
003FC000
003FE000
003FE000
007FE000
007FF000
00FFF000
00FFF000
00FDF800
01F9F800
01F9FC00
03F0FC00
03F0FC00
03F0FE00
07E07E00
07E07E00
07FFFF00
0FFFFF00
0FFFFF00
1FFFFF80
1FFFFF80
1F801F80
3F801FC0
3F000FC0
3F000FC0
7F000FE0
7E000FE0
FE0007E0
FE0007F0
FC0007F0
ENDCHAR
STARTCHAR 00C4
ENCODING 196
SWIDTH 630 0
DWIDTH 28 0
BBX 28 40 1 0
BITMAP
01E07800
03F0FC00
03F8FE00
03F8FE00
03F8FE00
03F07C00
01E03800
00000000
001F8000
001FC000
001FC000
003FC000
003FE000
003FE000
007FE000
007FF000
00FFF000
00FFF000
00FDF800
01F9F800
01F9FC00
03F0FC00
03F0FC00
03F0FE00
07E07E00
07E07E00
07FFFF00
0FFFFF00
0FFFFF00
1FFFFF80
1FFFFF80
1F801F80
3F801FC0
3F000FC0
3F000FC0
7F000FE0
7E000FE0
FE0007E0
FE0007F0
FC0007F0
ENDCHAR
STARTCHAR 00C5
ENCODING 197
SWIDTH 630 0
DWIDTH 28 0
BBX 28 46 1 0
BITMAP
000F8000
003FE000
007FF000
00FFF000
00F07800
00E07800
01E07800
01E07800
00F07800
00F8F800
007FF000
007FE000
001FC000
00020000
001F8000
001FC000
001FC000
003FC000
003FE000
003FE000
007FE000
007FF000
00FFF000
00FFF000
00FDF800
01F9F800
01F9FC00
03F0FC00
03F0FC00
03F0FE00
07E07E00
07E07E00
07FFFF00
0FFFFF00
0FFFFF00
1FFFFF80
1FFFFF80
1F801F80
3F801FC0
3F000FC0
3F000FC0
7F000FE0
7E000FE0
FE0007E0
FE0007F0
FC0007F0
ENDCHAR
STARTCHAR 00C6
ENCODING 198
SWIDTH 765 0
DWIDTH 34 0
BBX 32 32 0 0
BITMAP
000FFFFF
000FFFFF
000FFFFF
001FFFFF
001FBFFF
001FBFFF
003FBF00
003F3F00
007F3F00
007E3F00
007E3F00
00FC3F00
00FC3F00
01FC3F00
01FFFFFF
01FFFFFF
03FFFFFF
03FFFFFF
07FFFFFF
07F03F00
07E03F00
0FE03F00
0FC03F00
0FC03F00
1FC03F00
1F803F00
3F803F00
3F003FFF
3F003FFF
7F003FFF
7E003FFF
FE003FFF
ENDCHAR
STARTCHAR 00C7
ENCODING 199
SWIDTH 585 0
DWIDTH 26 0
BBX 25 42 2 -11
BITMAP
007FC000
01FFF000
07FFFC00
0FFFFE00
1FFFFE00
1FE0FF00
3F803F80
3F003C00
7F000000
7E000000
7E000000
FE000000
FC000000
FC000000
FC000000
FC000000
FC000000
FC000000
FC000000
FE000000
7E000000
7E000000
7F000000
7F001800
3F803F00
3FC07F80
1FE0FF00
1FFFFE00
0FFFFE00
07FFFC00
01FFF000
007FC000
00000000
00060000
000F0000
001F0000
000F8000
000F8000
001F0000
007F0000
003E0000
00380000
ENDCHAR
STARTCHAR 00C8
ENCODING 200
SWIDTH 472 0
DWIDTH 21 0
BBX 22 43 2 0
BITMAP
018000
03C000
07E000
03F000
03F000
01F800
00FC00
007C00
003C00
001800
000000
FFFFFC
FFFFFC
FFFFFC
FFFFFC
FFFFFC
FC0000
FC0000
FC0000
FC0000
FC0000
FC0000
FC0000
FC0000
FFFFF0
FFFFF0
FFFFF0
FFFFF0
FFFFF0
FC0000
FC0000
FC0000
FC0000
FC0000
FC0000
FC0000
FC0000
FC0000
FFFFFC
FFFFFC
FFFFFC
FFFFFC
FFFFFC
ENDCHAR
STARTCHAR 00C9
ENCODING 201
SWIDTH 562 0
DWIDTH 25 0
BBX 22 43 2 0
BITMAP
000380
0007C0
0007C0
000FC0
001F80
001F00
003E00
007E00
003C00
001800
000000
FFFFFC
FFFFFC
FFFFFC
FFFFFC
FFFFFC
FC0000
FC0000
FC0000
FC0000
FC0000
FC0000
FC0000
FC0000
FFFFF0
FFFFF0
FFFFF0
FFFFF0
FFFFF0
FC0000
FC0000
FC0000
FC0000
FC0000
FC0000
FC0000
FC0000
FC0000
FFFFFC
FFFFFC
FFFFFC
FFFFFC
FFFFFC
ENDCHAR
STARTCHAR 00CA
ENCODING 202
SWIDTH 562 0
DWIDTH 25 0
BBX 22 41 2 0
BITMAP
007E00
00FF00
01FF80
01FF80
03FFC0
07E7E0
0FC3F0
000000
000000
FFFFFC
FFFFFC
FFFFFC
FFFFFC
FFFFFC
FC0000
FC0000
FC0000
FC0000
FC0000
FC0000
FC0000
FC0000
FFFFF0
FFFFF0
FFFFF0
FFFFF0
FFFFF0
FC0000
FC0000
FC0000
FC0000
FC0000
FC0000
FC0000
FC0000
FC0000
FFFFFC
FFFFFC
FFFFFC
FFFFFC
FFFFFC
ENDCHAR
STARTCHAR 00CB
ENCODING 203
SWIDTH 562 0
DWIDTH 25 0
BBX 22 40 2 0
BITMAP
0781E0
0FC3F0
0FE3F8
0FE3F8
0FC3F8
0FC3F0
0780E0
000000
FFFFFC
FFFFFC
FFFFFC
FFFFFC
FFFFFC
FC0000
FC0000
FC0000
FC0000
FC0000
FC0000
FC0000
FC0000
FFFFF0
FFFFF0
FFFFF0
FFFFF0
FFFFF0
FC0000
FC0000
FC0000
FC0000
FC0000
FC0000
FC0000
FC0000
FC0000
FFFFFC
FFFFFC
FFFFFC
FFFFFC
FFFFFC
ENDCHAR
STARTCHAR 00CC
ENCODING 204
SWIDTH 315 0
DWIDTH 14 0
BBX 10 43 -1 0
BITMAP
7000
F800
F800
FC00
7E00
3F00
1F00
0F80
0F00
0600
0000
0FC0
0FC0
0FC0
0FC0
0FC0
0FC0
0FC0
0FC0
0FC0
0FC0
0FC0
0FC0
0FC0
0FC0
0FC0
0FC0
0FC0
0FC0
0FC0
0FC0
0FC0
0FC0
0FC0
0FC0
0FC0
0FC0
0FC0
0FC0
0FC0
0FC0
0FC0
0FC0
ENDCHAR
STARTCHAR 00CD
ENCODING 205
SWIDTH 315 0
DWIDTH 14 0
BBX 9 43 3 0
BITMAP
0700
0F80
0F80
1F80
3F00
3E00
7C00
FC00
7800
3000
0000
FC00
FC00
FC00
FC00
FC00
FC00
FC00
FC00
FC00
FC00
FC00
FC00
FC00
FC00
FC00
FC00
FC00
FC00
FC00
FC00
FC00
FC00
FC00
FC00
FC00
FC00
FC00
FC00
FC00
FC00
FC00
FC00
ENDCHAR
STARTCHAR 00CE
ENCODING 206
SWIDTH 315 0
DWIDTH 14 0
BBX 16 41 -2 0
BITMAP
07E0
0FF0
1FF8
3FF8
3EFC
7E7E
FC3F
0000
0000
07E0
07E0
07E0
07E0
07E0
07E0
07E0
07E0
07E0
07E0
07E0
07E0
07E0
07E0
07E0
07E0
07E0
07E0
07E0
07E0
07E0
07E0
07E0
07E0
07E0
07E0
07E0
07E0
07E0
07E0
07E0
07E0
ENDCHAR
STARTCHAR 00CF
ENCODING 207
SWIDTH 315 0
DWIDTH 14 0
BBX 18 41 -3 0
BITMAP
3C0F00
7E1F80
7E1FC0
FF1FC0
7E1FC0
7E1F80
3C0F00
000000
000000
03F000
03F000
03F000
03F000
03F000
03F000
03F000
03F000
03F000
03F000
03F000
03F000
03F000
03F000
03F000
03F000
03F000
03F000
03F000
03F000
03F000
03F000
03F000
03F000
03F000
03F000
03F000
03F000
03F000
03F000
03F000
03F000
ENDCHAR
STARTCHAR 00D0
ENCODING 208
SWIDTH 720 0
DWIDTH 32 0
BBX 26 32 3 0
BITMAP
1FFF0000
1FFFE000
1FFFF000
1FFFF800
1FFFFC00
1F03FE00
1F00FF00
1F003F00
1F003F80
1F001F80
1F000FC0
1F000FC0
1F000FC0
FFFC0FC0
FFFC07C0
FFFC07C0
FFFC07C0
FFFC07C0
1F000FC0
1F000FC0
1F000FC0
1F001FC0
1F001F80
1F003F80
1F007F00
1F00FF00
1F03FE00
1FFFFC00
1FFFF800
1FFFF000
1FFFE000
1FFF0000
ENDCHAR
STARTCHAR 00D1
ENCODING 209
SWIDTH 630 0
DWIDTH 28 0
BBX 23 41 3 0
BITMAP
03C000
0FE0C0
0FF9C0
0FFFC0
0FFFC0
0C7FC0
081F80
000F00
000000
FC003E
FC003E
FE003E
FE003E
FF003E
FF803E
FF803E
FFC03E
FFC03E
FFE03E
FFF03E
FBF03E
FBF83E
F9F83E
F8FC3E
F8FE3E
F87E3E
F87F3E
F83F3E
F83FBE
F81FFE
F80FFE
F80FFE
F807FE
F807FE
F803FE
F801FE
F801FE
F800FE
F800FE
F8007E
F8007E
ENDCHAR
STARTCHAR 00D2
ENCODING 210
SWIDTH 652 0
DWIDTH 29 0
BBX 27 43 2 0
BITMAP
00E00000
01E00000
01F00000
01F80000
00F80000
00FC0000
007E0000
003E0000
001E0000
000C0000
00000000
003F8000
01FFF000
03FFF800
07FFFC00
0FFFFE00
1FF0FF00
3FC07F80
3F803F80
7F001FC0
7E000FC0
7E000FC0
7E000FC0
FE000FE0
FC0007E0
FC0007E0
FC0007E0
FC0007E0
FC0007E0
FC000FE0
FE000FC0
7E000FC0
7E000FC0
7F001FC0
3F001F80
3F803F80
1FC07F00
1FF1FF00
0FFFFE00
07FFFC00
03FFF800
01FFF000
003F8000
ENDCHAR
STARTCHAR 00D3
ENCODING 211
SWIDTH 652 0
DWIDTH 29 0
BBX 27 43 2 0
BITMAP
0001C000
0003E000
0003E000
0007E000
000FC000
000F8000
001F8000
001F0000
001E0000
000C0000
00000000
003F8000
01FFF000
03FFF800
07FFFC00
0FFFFE00
1FF0FF00
3FC07F80
3F803F80
7F001FC0
7E000FC0
7E000FC0
7E000FC0
FE000FE0
FC0007E0
FC0007E0
FC0007E0
FC0007E0
FC0007E0
FC000FE0
FE000FC0
7E000FC0
7E000FC0
7F001FC0
3F001F80
3F803F80
1FC07F00
1FF1FF00
0FFFFE00
07FFFC00
03FFF800
01FFF000
003F8000
ENDCHAR
STARTCHAR 00D4
ENCODING 212
SWIDTH 652 0
DWIDTH 29 0
BBX 27 41 2 0
BITMAP
001F8000
003F8000
007FC000
00FFE000
01FBF000
03F1F800
03F0FC00
04000000
00000000
003F8000
01FFF000
03FFF800
07FFFC00
0FFFFE00
1FF0FF00
3FC07F80
3F803F80
7F001FC0
7E000FC0
7E000FC0
7E000FC0
FE000FE0
FC0007E0
FC0007E0
FC0007E0
FC0007E0
FC0007E0
FC000FE0
FE000FC0
7E000FC0
7E000FC0
7F001FC0
3F001F80
3F803F80
1FC07F00
1FF1FF00
0FFFFE00
07FFFC00
03FFF800
01FFF000
003F8000
ENDCHAR
STARTCHAR 00D5
ENCODING 213
SWIDTH 652 0
DWIDTH 29 0
BBX 27 42 2 0
BITMAP
00700000
00F80800
01FE1800
01FF7800
01FFF800
01DFF800
010FF800
0003F000
0001E000
00000000
003F8000
01FFF000
03FFF800
07FFFC00
0FFFFE00
1FF0FF00
3FC07F80
3F803F80
7F001FC0
7E000FC0
7E000FC0
7E000FC0
FE000FE0
FC0007E0
FC0007E0
FC0007E0
FC0007E0
FC0007E0
FC000FE0
FE000FC0
7E000FC0
7E000FC0
7F001FC0
3F001F80
3F803F80
1FC07F00
1FF1FF00
0FFFFE00
07FFFC00
03FFF800
01FFF000
003F8000
ENDCHAR
STARTCHAR 00D6
ENCODING 214
SWIDTH 652 0
DWIDTH 29 0
BBX 27 41 2 0
BITMAP
01C07000
07E0FC00
07F1FC00
07F1FC00
07F1FC00
07E0FC00
03C07800
00000000
00000000
003F8000
01FFF000
03FFF800
07FFFC00
0FFFFE00
1FF0FF00
3FC07F80
3F803F80
7F001FC0
7E000FC0
7E000FC0
7E000FC0
FE000FE0
FC0007E0
FC0007E0
FC0007E0
FC0007E0
FC0007E0
FC000FE0
FE000FC0
7E000FC0
7E000FC0
7F001FC0
3F001F80
3F803F80
1FC07F00
1FF1FF00
0FFFFE00
07FFFC00
03FFF800
01FFF000
003F8000
ENDCHAR
STARTCHAR 00D7
ENCODING 215
SWIDTH 405 0
DWIDTH 18 0
BBX 16 16 1 6
BITMAP
1008
381C
7C3E
FE7F
7FFE
3FFC
1FF8
0FF0
0FF0
1FF8
3FFC
7FFE
7E7F
3C3E
181C
0008
ENDCHAR
STARTCHAR 00D8
ENCODING 216
SWIDTH 1215 0
DWIDTH 54 0
BBX 27 32 2 0
BITMAP
003FFE00
01FFFE00
03FFFC00
07FFFC00
0FFFFE00
1FF1FF00
3FC3FF80
3F83FF80
7F03FFC0
7E07EFC0
7E07EFC0
7E0FCFC0
FE0FCFE0
FC1F87E0
FC1F87E0
FC1F87E0
FC3F07E0
FC3F07E0
FC7E07E0
FE7E0FC0
7EFC0FC0
7EFC0FC0
7FFC1FC0
3FF81F80
3FF83F80
1FF07F00
1FF1FF00
0FFFFE00
07FFFC00
0FFFF800
0FFFF000
0FFF8000
ENDCHAR
STARTCHAR 00D9
ENCODING 217
SWIDTH 630 0
DWIDTH 28 0
BBX 24 43 2 0
BITMAP
01C000
03E000
03E000
03F000
01F800
00F800
00FC00
007E00
003C00
001800
000000
FC003F
FC003F
FC003F
FC003F
FC003F
FC003F
FC003F
FC003F
FC003F
FC003F
FC003F
FC003F
FC003F
FC003F
FC003F
FC003F
FC003F
FC003F
FC003F
7C003F
7E003F
7E003F
7E007E
7E007E
3F00FE
3F80FC
1FE3FC
1FFFF8
0FFFF0
07FFE0
03FFC0
007F00
ENDCHAR
STARTCHAR 00DA
ENCODING 218
SWIDTH 630 0
DWIDTH 28 0
BBX 24 43 2 0
BITMAP
000380
0003C0
0007C0
000FC0
000F80
001F80
003F00
003E00
003C00
001800
000000
FC003F
FC003F
FC003F
FC003F
FC003F
FC003F
FC003F
FC003F
FC003F
FC003F
FC003F
FC003F
FC003F
FC003F
FC003F
FC003F
FC003F
FC003F
FC003F
7C003F
7E003F
7E003F
7E007E
7E007E
3F00FE
3F80FC
1FE3FC
1FFFF8
0FFFF0
07FFE0
03FFC0
007F00
ENDCHAR
STARTCHAR 00DB
ENCODING 219
SWIDTH 630 0
DWIDTH 28 0
BBX 24 42 2 0
BITMAP
007E00
00FF00
00FF80
01FFC0
03F7E0
07E7E0
0FC3F0
000000
000000
000000
FC003F
FC003F
FC003F
FC003F
FC003F
FC003F
FC003F
FC003F
FC003F
FC003F
FC003F
FC003F
FC003F
FC003F
FC003F
FC003F
FC003F
FC003F
FC003F
7C003F
7E003F
7E003F
7E007E
7E007E
3F00FE
3F80FC
1FE3FC
1FFFF8
0FFFF0
07FFE0
03FFC0
007F00
ENDCHAR
STARTCHAR 00DC
ENCODING 220
SWIDTH 630 0
DWIDTH 28 0
BBX 24 41 2 0
BITMAP
0780E0
0FC1F0
0FE3F8
0FE3F8
0FE3F8
0FC3F0
0781E0
000000
000000
FC003F
FC003F
FC003F
FC003F
FC003F
FC003F
FC003F
FC003F
FC003F
FC003F
FC003F
FC003F
FC003F
FC003F
FC003F
FC003F
FC003F
FC003F
FC003F
7C003F
7E003F
7E003F
7E007E
7E007E
3F00FE
3F80FC
1FE3FC
1FFFF8
0FFFF0
07FFE0
03FFC0
007F00
ENDCHAR
STARTCHAR 00DD
ENCODING 221
SWIDTH 585 0
DWIDTH 26 0
BBX 25 43 2 0
BITMAP
00038000
0003C000
0007C000
000FC000
000F8000
001F8000
003F0000
003E0000
003C0000
00180000
00000000
FC001F80
FC003F00
7E003F00
3F007E00
3F00FC00
1F80FC00
1F81F800
0FC1F800
07C3F000
07E3E000
03F7E000
03F7C000
01FFC000
00FF8000
00FF0000
007F0000
007E0000
007E0000
007E0000
007E0000
007E0000
007E0000
007E0000
007E0000
007E0000
007E0000
007E0000
007E0000
007E0000
007E0000
007E0000
007E0000
ENDCHAR
STARTCHAR 00DE
ENCODING 222
SWIDTH 675 0
DWIDTH 30 0
BBX 20 32 3 0
BITMAP
FC0000
FC0000
FC0000
FC0000
FC0000
FC0000
FFF000
FFFE00
FFFF80
FFFFC0
FFFFE0
FC3FE0
FC07F0
FC03F0
FC03F0
FC03F0
FC03F0
FC03F0
FC07F0
FC0FF0
FC7FE0
FFFFE0
FFFFC0
FFFF80
FFFE00
FFF000
FC0000
FC0000
FC0000
FC0000
FC0000
FC0000
ENDCHAR
STARTCHAR 00DF
ENCODING 223
SWIDTH 607 0
DWIDTH 27 0
BBX 23 34 2 0
BITMAP
00FE00
07FFC0
0FFFE0
1FFFF0
3FFFF0
3F83F8
7F01F8
7E00FC
7C00FC
7C00FC
FC00FC
FC00FC
FC00FC
F801F8
F807F8
F83FF0
F87FE0
F87FF0
F87FF8
F80FF8
F801FC
F800FE
F8007E
F8007E
F8003E
F8003E
F8007E
F800FE
F801FC
F87FFC
F8FFF8
F8FFF0
F9FFE0
00FF00
ENDCHAR
STARTCHAR 00E0
ENCODING 224
SWIDTH 495 0
DWIDTH 22 0
BBX 19 36 2 0
BITMAP
038000
078000
0FC000
07E000
07E000
03F000
01F800
00F800
007800
003000
000000
000000
1FF800
7FFE00
3FFF80
1FFF80
181FC0
000FC0
0007E0
0387E0
0FF3E0
3FFBE0
7FFBE0
7FFFE0
FE0FE0
FC07E0
F803E0
F803E0
F803E0
FC07E0
FE0FE0
7FFFE0
7FFFE0
3FFBE0
1FF3E0
07E000
ENDCHAR
STARTCHAR 00E1
ENCODING 225
SWIDTH 495 0
DWIDTH 22 0
BBX 19 35 2 0
BITMAP
001C00
001E00
003E00
007E00
007C00
00FC00
01F800
01F000
01E000
00C000
000000
1FF800
7FFE00
3FFF80
1FFF80
181FC0
000FC0
0007E0
0387E0
0FF3E0
3FFBE0
7FFBE0
7FFFE0
FE0FE0
FC07E0
F803E0
F803E0
F803E0
FC07E0
FE0FE0
7FFFE0
7FFFE0
3FFBE0
1FF3E0
07E000
ENDCHAR
STARTCHAR 00E2
ENCODING 226
SWIDTH 495 0
DWIDTH 22 0
BBX 19 32 2 0
BITMAP
03F000
03F800
07FC00
0FFE00
1FBF00
3F1F80
7E1F80
000040
07F000
3FFE00
3FFF00
3FFF80
1F7FC0
100FC0
0007E0
0007E0
07C7E0
1FF3E0
3FFBE0
7FFFE0
7FFFE0
FE0FE0
FC07E0
F803E0
F803E0
FC07E0
FE0FE0
7FFFE0
7FFFE0
3FFBE0
1FF3E0
07E000
ENDCHAR
STARTCHAR 00E3
ENCODING 227
SWIDTH 495 0
DWIDTH 22 0
BBX 19 34 2 0
BITMAP
038000
0FC080
1FF180
1FFF80
1FFF80
1EFF80
183F80
001F00
000000
000000
1FF800
7FFE00
3FFF80
1FFF80
181FC0
000FC0
0007E0
0387E0
0FF3E0
3FFBE0
7FFBE0
7FFFE0
FE0FE0
FC07E0
F803E0
F803E0
F803E0
FC07E0
FE0FE0
7FFFE0
7FFFE0
3FFBE0
1FF3E0
07E000
ENDCHAR
STARTCHAR 00E4
ENCODING 228
SWIDTH 495 0
DWIDTH 22 0
BBX 19 33 2 0
BITMAP
1E0780
3F0FC0
3F0FE0
3F8FE0
3F0FE0
3F0FC0
1E0380
000000
000000
1FF800
7FFE00
3FFF80
1FFF80
181FC0
000FC0
0007E0
0387E0
0FF3E0
3FFBE0
7FFBE0
7FFFE0
FE0FE0
FC07E0
F803E0
F803E0
F803E0
FC07E0
FE0FE0
7FFFE0
7FFFE0
3FFBE0
1FF3E0
07E000
ENDCHAR
STARTCHAR 00E5
ENCODING 229
SWIDTH 495 0
DWIDTH 22 0
BBX 19 39 2 0
BITMAP
004000
03F800
07FE00
0FFE00
1F1F00
1E0F00
1E0700
1C0700
1E0700
1E0F00
0FFF00
0FFE00
07FC00
01F000
000000
1FF800
7FFE00
3FFF80
1FFF80
181FC0
000FC0
0007E0
0387E0
0FF3E0
3FFBE0
7FFBE0
7FFFE0
FE0FE0
FC07E0
F803E0
F803E0
F803E0
FC07E0
FE0FE0
7FFFE0
7FFFE0
3FFBE0
1FF3E0
07E000
ENDCHAR
STARTCHAR 00E6
ENCODING 230
SWIDTH 855 0
DWIDTH 38 0
BBX 34 23 2 0
BITMAP
07F007E000
3FFE1FF800
3FFF3FFC00
3FFFFFFE00
1F7FFFFF00
000FFC3F80
0007F81F80
0387F00F80
0FF3F00FC0
3FFBFFFFC0
7FFBFFFFC0
7FFFFFFFC0
FE0FFFFFC0
FC07F00000
F803F00000
F803F00000
FC07F80000
FE0FFC1800
7FFFFFFF00
7FFFFFFF00
3FFBFFFE00
1FF3FFFC00
07E007E000
ENDCHAR
STARTCHAR 00E7
ENCODING 231
SWIDTH 405 0
DWIDTH 18 0
BBX 19 33 2 -10
BITMAP
01FC00
07FF00
0FFF80
1FFFC0
3FFFE0
7F87C0
7E0300
FE0000
FC0000
FC0000
FC0000
FC0000
FC0000
FC0000
FC0000
FE0000
7E0300
7F87C0
3FFFE0
1FFFC0
0FFF80
07FF00
00FC00
000000
00E000
01F000
01F000
00F800
01F800
03F000
07E000
03C000
010000
ENDCHAR
STARTCHAR 00E8
ENCODING 232
SWIDTH 472 0
DWIDTH 21 0
BBX 20 34 2 0
BITMAP
030000
078000
0FC000
0FC000
07E000
03F000
01F000
00F800
007800
007000
000000
01F800
07FE00
0FFF80
1FFFC0
3FFFC0
7F0FE0
7E03E0
7C03F0
FC01F0
FFFFF0
FFFFF0
FFFFF0
FFFFF0
FC0000
FC0000
7C0000
7E0000
7F0700
3FFFC0
1FFFC0
0FFF80
07FF00
00FC00
ENDCHAR
STARTCHAR 00E9
ENCODING 233
SWIDTH 472 0
DWIDTH 21 0
BBX 20 34 2 0
BITMAP
000E00
001F00
001F00
003F00
007E00
007C00
00FC00
00F800
00F000
006000
000000
01F800
07FE00
0FFF80
1FFFC0
3FFFC0
7F0FE0
7E03E0
7C03F0
FC01F0
FFFFF0
FFFFF0
FFFFF0
FFFFF0
FC0000
FC0000
7C0000
7E0000
7F0700
3FFFC0
1FFFC0
0FFF80
07FF00
00FC00
ENDCHAR
STARTCHAR 00EA
ENCODING 234
SWIDTH 472 0
DWIDTH 21 0
BBX 20 31 2 0
BITMAP
01FC00
03FE00
03FF00
07FF00
0FDF80
1F8FC0
3F07E0
000000
01F800
07FE00
0FFF80
1FFFC0
3FFFC0
7F0FE0
7E03E0
7C03F0
FC01F0
FFFFF0
FFFFF0
FFFFF0
FFFFF0
FC0000
FC0000
7C0000
7E0000
7F0700
3FFFC0
1FFFC0
0FFF80
07FF00
00FC00
ENDCHAR
STARTCHAR 00EB
ENCODING 235
SWIDTH 472 0
DWIDTH 21 0
BBX 20 32 2 0
BITMAP
0E0380
3F07C0
3F8FE0
3F8FE0
3F8FE0
3F07E0
1E03C0
000000
000000
01F800
07FE00
0FFF80
1FFFC0
3FFFC0
7F0FE0
7E03E0
7C03F0
FC01F0
FFFFF0
FFFFF0
FFFFF0
FFFFF0
FC0000
FC0000
7C0000
7E0000
7F0700
3FFFC0
1FFFC0
0FFF80
07FF00
00FC00
ENDCHAR
STARTCHAR 00EC
ENCODING 236
SWIDTH 270 0
DWIDTH 12 0
BBX 10 34 -1 0
BITMAP
3800
7800
FC00
7E00
7E00
3F00
1F80
0F80
0780
0300
0000
0FC0
0FC0
0FC0
0FC0
0FC0
0FC0
0FC0
0FC0
0FC0
0FC0
0FC0
0FC0
0FC0
0FC0
0FC0
0FC0
0FC0
0FC0
0FC0
0FC0
0FC0
0FC0
0FC0
ENDCHAR
STARTCHAR 00ED
ENCODING 237
SWIDTH 270 0
DWIDTH 12 0
BBX 9 34 3 0
BITMAP
0700
0780
0F80
1F80
1F00
3F00
7E00
7C00
7800
3000
0000
FC00
FC00
FC00
FC00
FC00
FC00
FC00
FC00
FC00
FC00
FC00
FC00
FC00
FC00
FC00
FC00
FC00
FC00
FC00
FC00
FC00
FC00
FC00
ENDCHAR
STARTCHAR 00EE
ENCODING 238
SWIDTH 270 0
DWIDTH 12 0
BBX 16 32 -2 0
BITMAP
07E0
0FF0
1FF8
3FF8
3FFC
7E7E
FC3F
0000
0000
07E0
07E0
07E0
07E0
07E0
07E0
07E0
07E0
07E0
07E0
07E0
07E0
07E0
07E0
07E0
07E0
07E0
07E0
07E0
07E0
07E0
07E0
07E0
ENDCHAR
STARTCHAR 00EF
ENCODING 239
SWIDTH 270 0
DWIDTH 12 0
BBX 18 32 -3 0
BITMAP
3C0F00
7E1F80
7E1FC0
FF1FC0
7E1FC0
7E1F80
3C0F00
000000
000000
03F000
03F000
03F000
03F000
03F000
03F000
03F000
03F000
03F000
03F000
03F000
03F000
03F000
03F000
03F000
03F000
03F000
03F000
03F000
03F000
03F000
03F000
03F000
ENDCHAR
STARTCHAR 00F0
ENCODING 240
SWIDTH 517 0
DWIDTH 23 0
BBX 19 34 2 -1
BITMAP
000400
7F8C00
3FFE00
3FFF00
3FFF80
01FE00
03FC00
03FE00
01FF00
00DF00
000F80
000F80
03C7C0
0FF7C0
1FFBC0
3FFFC0
7FFFE0
7E3FE0
FC1FE0
FC0FE0
F807E0
F807E0
F807E0
F807E0
F807C0
FC07C0
FC0FC0
FE1FC0
7F3F80
7FFF80
3FFF00
3FFE00
0FFC00
03F000
ENDCHAR
STARTCHAR 00F1
ENCODING 241
SWIDTH 540 0
DWIDTH 24 0
BBX 19 34 3 0
BITMAP
070000
1F8000
3FC100
3FF700
3FFF00
3DFF00
30FF00
007F00
001C00
000000
007C00
F8FF00
FBFF80
FBFFC0
FFFFC0
FF1FC0
FC0FE0
FC07E0
FC07E0
F807E0
F807E0
F807E0
F807E0
F807E0
F807E0
F807E0
F807E0
F807E0
F807E0
F807E0
F807E0
F807E0
F807E0
F807E0
ENDCHAR
STARTCHAR 00F2
ENCODING 242
SWIDTH 562 0
DWIDTH 25 0
BBX 20 36 2 -1
BITMAP
070000
0F8000
0F8000
0FC000
07E000
03E000
03F000
01F800
00F000
006000
000000
01F800
07FF00
1FFF80
1FFFC0
3FFFE0
7F8FE0
7E07F0
7C03F0
FC01F0
FC01F0
FC01F0
F801F0
F801F0
F801F0
FC01F0
FC01F0
FC03F0
7E03F0
7E07E0
7FFFE0
3FFFC0
1FFFC0
0FFF80
07FE00
006000
ENDCHAR
STARTCHAR 00F3
ENCODING 243
SWIDTH 562 0
DWIDTH 25 0
BBX 20 36 2 -1
BITMAP
000E00
001F00
001F00
003F00
007E00
007C00
00FC00
01F800
00F000
006000
000000
01F800
07FF00
1FFF80
1FFFC0
3FFFE0
7F8FE0
7E07F0
7C03F0
FC01F0
FC01F0
FC01F0
F801F0
F801F0
F801F0
FC01F0
FC01F0
FC03F0
7E03F0
7E07E0
7FFFE0
3FFFC0
1FFFC0
0FFF80
07FE00
006000
ENDCHAR
STARTCHAR 00F4
ENCODING 244
SWIDTH 562 0
DWIDTH 25 0
BBX 20 33 2 -1
BITMAP
01F800
03FC00
03FE00
07FF00
0FDF00
1F9F80
3F0FC0
000000
006000
07FE00
0FFF80
1FFFC0
3FFFC0
7FDFE0
7E07E0
7E03F0
FC03F0
FC01F0
FC01F0
F801F0
F801F0
F801F0
FC01F0
FC01F0
FC01F0
7C03F0
7E07F0
7F8FE0
3FFFE0
1FFFC0
0FFF80
07FF00
01F800
ENDCHAR
STARTCHAR 00F5
ENCODING 245
SWIDTH 562 0
DWIDTH 25 0
BBX 20 34 2 -1
BITMAP
078000
0FE080
1FF380
1FFF80
1FFF80
1C7F80
103F80
000E00
000000
007000
07FE00
0FFF80
1FFFC0
3FFFC0
7FDFE0
7E07E0
7E03F0
FC03F0
FC01F0
FC01F0
F801F0
F801F0
F801F0
FC01F0
FC01F0
FC01F0
7C03F0
7E07F0
7F8FE0
3FFFE0
1FFFC0
1FFF80
07FF00
01F800
ENDCHAR
STARTCHAR 00F6
ENCODING 246
SWIDTH 562 0
DWIDTH 25 0
BBX 20 33 2 -1
BITMAP
1E0380
3F0FC0
3F0FE0
3F8FE0
3F8FE0
3F0FC0
1E0780
000000
006000
07FE00
0FFF80
1FFFC0
3FFFC0
7FFFE0
7E07E0
7E03F0
FC03F0
FC01F0
FC01F0
F801F0
F801F0
F801F0
FC01F0
FC01F0
FC01F0
7C03F0
7E07F0
7F8FE0
3FFFE0
1FFFC0
1FFF80
07FF00
01F800
ENDCHAR
STARTCHAR 00F7
ENCODING 247
SWIDTH 495 0
DWIDTH 22 0
BBX 16 22 3 3
BITMAP
03C0
07E0
07E0
07F0
07E0
07E0
03C0
0000
0000
FFFF
FFFF
FFFF
FFFF
FFFF
0000
03C0
07E0
07E0
07F0
07E0
07E0
03C0
ENDCHAR
STARTCHAR 00F8
ENCODING 248
SWIDTH 517 0
DWIDTH 23 0
BBX 22 23 1 0
BITMAP
00FCFC
03FFF8
07FFF0
0FFFF0
1FFFE0
3FC7F0
3F0FF0
3F1FF8
7E3FF8
7E3FF8
7E7EF8
7EFCF8
7FF8F8
7FF8F8
7FF1F8
3FE1F8
3FE3F8
3FC7F0
1FFFE0
3FFFE0
3FFFC0
7FFF00
FEFC00
ENDCHAR
STARTCHAR 00F9
ENCODING 249
SWIDTH 495 0
DWIDTH 22 0
BBX 20 35 2 0
BITMAP
070000
0F0000
1F8000
0FC000
0FC000
07E000
03F000
01F000
00F000
006000
000000
000000
FC03F0
FC03F0
FC03F0
FC03F0
FC03F0
FC03F0
FC03F0
FC03F0
FC03F0
FC03F0
FC03F0
FC03F0
FC03F0
FC03F0
FC03F0
7E07F0
7E07F0
7F1FF0
7FFFF0
3FFFF0
1FFBF0
1FF3F0
07C000
ENDCHAR
STARTCHAR 00FA
ENCODING 250
SWIDTH 495 0
DWIDTH 22 0
BBX 20 34 2 0
BITMAP
000C00
001E00
003F00
003F00
007E00
00FC00
00F800
01F000
01E000
00C000
000000
FC03F0
FC03F0
FC03F0
FC03F0
FC03F0
FC03F0
FC03F0
FC03F0
FC03F0
FC03F0
FC03F0
FC03F0
FC03F0
FC03F0
FC03F0
7E07F0
7E07F0
7F1FF0
7FFFF0
3FFFF0
1FFBF0
1FF3F0
07C000
ENDCHAR
STARTCHAR 00FB
ENCODING 251
SWIDTH 495 0
DWIDTH 22 0
BBX 20 32 2 0
BITMAP
01F800
03FC00
07FE00
0FFF00
1F9F80
1F8FC0
3F07C0
000000
000000
FC03F0
FC03F0
FC03F0
FC03F0
FC03F0
FC03F0
FC03F0
FC03F0
FC03F0
FC03F0
FC03F0
FC03F0
FC03F0
FC03F0
FC03F0
7E07F0
7E07F0
7F1FF0
7FFFF0
3FFFF0
1FFBF0
1FF3F0
07C000
ENDCHAR
STARTCHAR 00FC
ENCODING 252
SWIDTH 495 0
DWIDTH 22 0
BBX 20 32 2 0
BITMAP
1E0780
3F0FC0
3F0FE0
7F8FE0
3F0FE0
3F0FC0
1E0780
000000
000000
FC03F0
FC03F0
FC03F0
FC03F0
FC03F0
FC03F0
FC03F0
FC03F0
FC03F0
FC03F0
FC03F0
FC03F0
FC03F0
FC03F0
FC03F0
7E07F0
7E07F0
7F1FF0
7FFFF0
3FFFF0
1FFBF0
1FF3F0
07C000
ENDCHAR
STARTCHAR 00FD
ENCODING 253
SWIDTH 472 0
DWIDTH 21 0
BBX 20 43 2 -9
BITMAP
000E00
000F00
001F80
003F00
003F00
007E00
00FC00
00F800
00F000
006000
000000
FC03F0
FC03F0
FC03F0
FC03F0
FC03F0
FC03F0
FC03F0
FC03F0
FC03F0
FC03F0
FC03F0
FC03F0
FC03F0
FC03F0
FC03F0
7E07F0
7E07F0
7F1FF0
7FFFF0
3FFFF0
1FFBF0
1FF3F0
07C3F0
0003F0
0003F0
0C07E0
3E0FE0
7FFFC0
3FFF80
1FFF00
0FFE00
01F800
ENDCHAR
STARTCHAR 00FE
ENCODING 254
SWIDTH 540 0
DWIDTH 24 0
BBX 19 32 3 0
BITMAP
F80000
F80000
F80000
F8F800
F9FC00
FBFE00
FFFF00
FFFF80
FF1F80
FE1FC0
FC0FC0
FC07E0
F807E0
F807E0
F807E0
F807E0
F807E0
F807E0
F807E0
F807E0
FC07E0
FC0FC0
FE0FC0
FF1FC0
FFFF80
FFFF00
FFFF00
FBFC00
F8F000
F80000
F80000
F80000
ENDCHAR
STARTCHAR 00FF
ENCODING 255
SWIDTH 472 0
DWIDTH 21 0
BBX 20 41 2 -9
BITMAP
1E0780
3F0FC0
7F1FC0
7F1FC0
7F0FC0
3F0FC0
1E0780
000000
000000
FC03F0
FC03F0
FC03F0
FC03F0
FC03F0
FC03F0
FC03F0
FC03F0
FC03F0
FC03F0
FC03F0
FC03F0
FC03F0
FC03F0
FC03F0
7E07F0
7E07F0
7F1FF0
7FFFF0
3FFFF0
1FFBF0
1FF3F0
07C3F0
0003F0
0003F0
0C07E0
3E0FE0
7FFFC0
3FFF80
1FFF00
0FFE00
01F800
ENDCHAR
STARTCHAR 2012
ENCODING 8210
SWIDTH 585 0
DWIDTH 26 0
BBX 17 5 4 11
BITMAP
FFFF80
FFFF80
FFFF80
FFFF80
FFFF80
ENDCHAR
STARTCHAR 2013
ENCODING 8211
SWIDTH 495 0
DWIDTH 22 0
BBX 15 5 3 11
BITMAP
FFFE
FFFE
FFFE
FFFE
FFFE
ENDCHAR
STARTCHAR 2014
ENCODING 8212
SWIDTH 630 0
DWIDTH 28 0
BBX 22 5 3 11
BITMAP
FFFFFC
FFFFFC
FFFFFC
FFFFFC
FFFFFC
ENDCHAR
STARTCHAR 2018
ENCODING 8216
SWIDTH 180 0
DWIDTH 8 0
BBX 7 11 0 24
BITMAP
18
18
38
78
7C
FE
FE
FE
FE
7C
38
ENDCHAR
STARTCHAR 2019
ENCODING 8217
SWIDTH 180 0
DWIDTH 8 0
BBX 7 11 1 24
BITMAP
38
7C
FE
FE
FE
FE
7C
3C
38
30
30
ENDCHAR
STARTCHAR 201A
ENCODING 8218
SWIDTH 180 0
DWIDTH 8 0
BBX 7 11 1 -4
BITMAP
38
FC
FE
FE
FE
FC
7C
3C
38
30
20
ENDCHAR
STARTCHAR 201B
ENCODING 8219
SWIDTH 180 0
DWIDTH 8 0
BBX 8 11 0 24
BITMAP
08
1C
38
78
7C
7E
FE
FF
7E
7E
3C
ENDCHAR
STARTCHAR 201C
ENCODING 8220
SWIDTH 382 0
DWIDTH 17 0
BBX 16 11 0 24
BITMAP
080C
1C1C
381C
783C
7C3E
7E7F
FE7F
FE7F
7E7F
7E3E
3C1C
ENDCHAR
STARTCHAR 201D
ENCODING 8221
SWIDTH 382 0
DWIDTH 17 0
BBX 15 11 1 24
BITMAP
3838
FC7C
FEFE
FEFE
FEFE
FCFE
7C7C
3C3C
3838
3038
2030
ENDCHAR
STARTCHAR 201E
ENCODING 8222
SWIDTH 382 0
DWIDTH 17 0
BBX 15 11 1 -4
BITMAP
3838
7C7C
FEFE
FEFE
FEFE
FEFE
7C7C
3C1C
3838
3038
3030
ENDCHAR
STARTCHAR 201F
ENCODING 8223
SWIDTH 382 0
DWIDTH 17 0
BBX 16 11 0 24
BITMAP
080C
1C0C
381C
783C
7C3E
7E7F
FE7F
FE7F
FE7F
7E3E
3C1C
ENDCHAR
STARTCHAR 20AC
ENCODING 8364
SWIDTH 607 0
DWIDTH 27 0
BBX 21 24 3 4
BITMAP
003F00
00FFC0
01FFE0
03FFF0
07FFF8
0FE1E0
0FC0C0
1F8000
FFFE00
FFFE00
FFFE00
FFFE00
1F0000
1F0000
FFFC00
FFFC00
FFFC00
FFFC00
1FC0C0
0FFFF0
07FFF8
03FFF0
01FFE0
007F00
ENDCHAR
ENDFONT
